<svg width="424" height="274" viewBox="0 0 424 274" xmlns="http://www.w3.org/2000/svg"><title>world</title><defs><filter x="-17.9%" y="-43%" width="135.9%" height="186.1%" filterUnits="objectBoundingBox" id="a"><feGaussianBlur stdDeviation=".78" in="SourceGraphic"/></filter><filter x="-1.2%" y="-3.3%" width="102.3%" height="106.6%" filterUnits="objectBoundingBox" id="b"><feGaussianBlur stdDeviation=".974" in="SourceGraphic"/></filter></defs><g fill="none" fill-rule="evenodd"><g opacity=".12" stroke="#FFF" fill-rule="nonzero" stroke-width=".5" fill="#CCC"><path d="M260 165.56l.222-.07.049.387.973-.22 1.03.036.75.041.853-.95.933-.91.786-.874.235.483.169 1.12-.635.005-.102.92.222.193-.564.275-.005.575-.364.579-.03.556-.254.294-3.74-.699-.48-1.415zm11.792-15.385l1.185.547.874-.19.245-.656.916-.219.655-.442.232-1.174.978-.286.182-.526.551.395.348.047.647.012.878.312.357.177.837-.472.394.282.373-.673.696.03.178-.22.124-.601.502-.518.626.34-.125.455.353.072-.108 1.241.456.484.406-.311.518-.143.721-.66.8.109h1.202l.207.425-.68.164-.588.273-1.335.169-1.247.307-.68.635.278.615.133.715-.58.602.05.551-.32.51-1.107-.047.456.935-.737.357-.494.842.063.833-.456.392-.427-.13-.891.18-.124.383h-.867l-.646.775-.042 1.157-1.508.56-.812-.118-.237.294-.692-.168-1.164.202-1.944-.69 1.053-1.233-.096-.884-.878-.232-.091-.875-.382-1.115.498-.77-.506-.207.32-1.03zm-48.291-8.79l-.15.559.167.699.482.4-.025.422-.378.238-.071.523-.54.774-.2-.11-.02-.352-.645-.54-.104-.77.1-1.113.157-.51-.195-.26-.079-.523.507-.822.071.317.316-.15.25.449.278.167zm27.499.869l1.427-.254.212.429.391.28-.208.403.549.551-.29.508.436.433.461.258.022 1.094-.373.044-.417-.91.003-.241-.453.004-.304-.428-.212.043-.406-.464-.761-.398.099-.783zm-32.352 59.42l.296.87.348.7.28.378.46.612.795-.096.4-.166.666.166.18-.291.3-.683.749-.046.064-.204.615-.004-.103.42 1.461-.008.022.737.245.454-.177.708.09.724.405.438-.065 1.403.297-.109.524.03.748-.175.55.07.129.367-.138.574.211.558-.18.446.103.412-2.51-.017-.056 3.814.812.99.787.759-2.214.495-2.918-.17-.834-.584-4.887.055-.18.087-.727-.562-.782-.038-.722.209-.58.233-.112-.762.168-1.062.417-1.099.064-.516.391-1.079.288-.487.692-.778.387-.529.125-.878-.065-.67-.361-.421-.322-.716-.297-.704.065-.246.37-.466-.366-1.132-.245-.783-.602-.737.116-.225.499-.158.348.02.421-.14 3.555.012zm-4.69-.225l-.305.125-.322-.875.486-.503.365-.196.451.4-.438.245-.198.3-.039.504zm-90.778 71.446l-1.104.105-.593-.73-.702-.054h-1.245v-4.455l.448.906.582 1.488 1.514 1.21 1.631.51-.53 1.02zm.623-51.604l.684.919.453-1.025 1.328.055.187.27 2.141 2.086.95.194 1.424.953 1.2.505.165.574-1.145 1.993 1.174.358 1.308.203.92-.211 1.055-1.012.191-1.154.577-.25.585.755-.025 1.05-.98.729-.78.54-1.311 1.297-1.552 1.842-.29 1.092-.312 1.42.013 1.391-.254.312-.09.914-.08.742 1.478 1.227-.158.999.726.636-.058.716-1.116 1.905-1.727.805-2.332.317-1.278-.152.245.906-.237 1.146.216.78-.697.548-1.192.215-1.12-.57-.448.41.162 1.563.784.48.64-.5.348.825-1.071.498-.934 1.003-.17 1.648-.274.889-1.1.004-.913.86-.332 1.269 1.146 1.255 1.112.35-.398 1.572-1.374 1.003-.755 2.12-1.063.725-.477.869.378 1.955.776 1.109-.49-.097-1.08-.3-2.809-.257-.481-1.108.02-1.404-.776.118-.41-.674-.1-1.939.892-.792.37-1.13-.137-.889.618-1.483.423-2.255-.124-.982.506-.316-.124-.624-.54-.329.382-.687-.527-.615-.27-1.85.47-.325-.196-1.913.274-1.58.311-1.358.697-.548-.352-1.458-.004-1.357.88-.953-.026-1.21.664-1.394.005-1.303-.303-.257-.536-2.398.718-1.408-.108-1.31.415-1.223.764-1.247.822-.822-.349-.518.245-.422-.037-2.166 1.265-.636.399-1.332-.141-.32.97-1.147 1.487.29zM220 130.785l-.09.789-.676.004.231.41-.398 1.223-.227.319-1.048.046-.608.424-.993-.143-1.712-.484-.27-.66-1.185.332-.141.355-.728-.267-.611-.05-.544-.347.184-.461-.047-.341.364-.102.607.526.172-.503 1.057.083.86-.341.573.055.373.392.115-.323-.171-1.254.432-.25.42-.899.894.632.672-.802.424-.148.933.6.565-.102.552.37-.099.248zm150.443 115.738l1.13.534.637-.213.913-.296.7.105.084 1.848-.4.542-.121 1.277-.409-.438-.812 1.118-.242-.088-.717-.05-.721-1.368-.158-1.043-.676-1.356.03-.705.762.133zm-2.146-35.906l.42.939.751-.45.388.508.562.472-.12.534.25 1.035.179.605.296.15.316 1.043-.112.634.38.834 1.266.643.825.588.784.538-.154.3.667.781.454 1.356.467-.275.475.546.287-.192.2 1.34.83.78.542.488.912 1.039.33 1.039.029.738-.08.81.559 1.118-.067 1.172-.2.618-.316 1.197.025.776-.234.976-.517 1.252-.867.68-.425 1.08-.391.697-.346 1.223-.45.713-.296 1.077-.15 1.001.058.463-.671.51-1.309.053-1.08.605-.537.576-.704.643-.967-.66-.717-.262.183-.772-.637.28-1.021 1.076-1.009-.405-.663-.234-.667-.104-1.129-.43-.754-.905-.217-1.106-.271-.73-.575-.584-1.125-.17.383-.694-.283-1.05-.571.98-1.038.262.612-.784.18-.814.45-.688-.092-1.03-.95 1.189-.73.48-.445 1.122-.913-.584.037-.747-.73-1.014-.616-.522.221-.32-1.5-.835-.821-.038-1.126-.667-2.092.129-1.513.492-1.33.46-1.116-.093-1.238.71-1.013.321-.225.73-.43.568-.991.033-.734.125-1.033-.254-.842.154-.8.063-.696.75-.342-.062-.588.4-.563.451-.854-.054h-.783l-1.238-.906-.63-.267.025-.805.58-.192.2-.317-.042-.5.142-.96-.13-.814-.616-1.372-.192-.768.05-.764-.467-.867-.029-.388-.517-.526-.146-1.03-.666-1.035-.163-.555.513.563-.396-1.202.579.376.346.5-.02-.663-.58-1.014-.113-.404-.27-.384.129-.739.237-.313.158-.634-.125-.738.484-.901.087.955.496-.864.95-.417.572-.534.892-.455.529-.096.32.155.922-.463.708-.138.18-.271.308-.113.646.03 1.23-.364.633-.546.3-.655.688-.622.054-.488.03-.663.816-1.03.492 1.046.496-.242-.417-.571.367-.589.517.263.141-.918.638-.592.283-.476.588-.204.017-.334.512.142.021-.3.513-.172.567-.162.862.55.65.714.734.008.742.113-.246-.66.558-.959.526-.313-.184-.296.509-.68.708-.421.6.141.984-.225-.02-.605-.855-.392.62-.171.776.292.62.488.985.305.333-.121.725.367.684-.338.437.104.275-.23.538.589-.313.638-.441.484-.4.042.137.48-.342.6-.416.589.083.338.93.667.9.388.6.418.846.717h.329l.613.313.179.376 1.117.413.77-.418.23-.655.238-.538.146-.663.354-.96-.163-.58.084-.35-.134-.684.154-.902.226-.242-.184-.396.284-.63.22-.65.03-.339.433-.442.33.58.079.743.291.141.05.501.425.605.088.676-.075.371z"/><path d="M252.254 143.985l.371.37.554-.004-.005.214.513.794-.857-.183-.634-.634-.196-.523.254-.034zm2.97-2.073l.553.096.214-.36.746-.575.656.751.638 1 .585.065.384.378-1.031.11-.219 1.077-.214.481-.46.32.036.676-.313.069-.781-.714.433-.68-.37-.404-.47.103-1.477 1.016-.027-.955-.562-.225-.532-.378.353-.442-.665-.481.25-.351-.478-.245-.259-.37.308-.233.933.409.674.084.17-.165-.616-.77.326-.199.353.05.861.862zm-32.997-6.322l.472-.004-.324.686.625.598-.19.726-.305.068-.241.144-.426.355-.19.837-1.148-.574-.49-.642-.496-.34-.593-.578-.282-.482-.639-.73.273-.654.468.363.278-.327.606-.036 1.12.263.894-.024zM308 168.367l-.02.857-.38-.184.07.96-.312-.621-.062-.605-.21-.578-.455-.7-1.003-.048.101.497-.342.665-.466-.243-.156.22-.31-.132-.42-.107-.172-.988-.377-.908.183-.732-.669-.327.241-.446.68-.458-.785-.649.385-.84.863.534.521.063.097.856 1.038.168 1.011-.02.626.21-.501 1.032-.486.072-.339.689.6.629.174-.773.303-.004zm-104.12-44.096l.803.164 1.018-.435.692.912.607.487-.125 1.39-.286.074-.121 1.137-.96-.922-.563.16-.767-.964-.509-.828-.509-.033-.16-.73zm-7.767 59.689l-.805-.325-.554.049-.411.316-.529-.267-.206-.415-.528-.276-.08-.73.323-.54-.03-.428.936-1.051.172-.874.323-.311.571.169.491-.259.16-.33.914-.57.223-.4 1.099-.535.65-.183.294.25.75-.01-.091.624.16.584.662.833.038.615 1.355.29-.03.869-.255.383-.575.116-.24.552-.402.143-1.032-.027-.546-.098-.377.205-.52-.093-2.044.057-.03.718zM226.311 137l.328.701.436-.127.873.267 1.665.088.562-.434 1.334-.394.824.618.667.18-.59.696-.412 1.196.363.947-.974-.224-1.155.518-.013.815-1.03.153-.796-.57-.91.452-.836-.049-.081-1.082-.566-.53.186-.237-.125-.197.19-.53.432-.522-.55-.727-.1-.622zm8.053 63l-.075-1.685-.289-.63.702.11.356-.795.616.09.066.55.248.315.012.455-.285.29-.45.73-.422.505z"/><path d="M203.538 186.866l-1.095.134-.325-.79.061-2.627-.264-.236-.052-.565-.457-.403-.406-.337.17-.61.453-.13.269-.505.646-.106.287-.35.449-.337.471-.004 1.01.667-.052.386.297.684-.26.463.137.31-.641.711-.406.354-.25.72.033.732zM334 189.284l.317-.523L335 188l-.037.687-.046.885-.383-.045-.168.473zm-208.193 31.659l-1.321-.054-.45 1.019-.681-.914-1.515-.306-.962 1.14-.838.172-.45-1.74-.624-1.4.363-1.204-.606-.524-.153-.889-.57-.838.73-1.317-.499-1.023.269-.407-.211-.448.454-.604.025-1.023.054-.847.251-.403-1.003-1.92.863.1.595-.025.26-.36 1.011-.482.611-.445 1.511-.201-.12.889.14.457-.09.797 1.255 1.069 1.297.201.454.444.784.24.479.347.727-.012.673.356.05.696.226.352.017.525-.339.016.446 1.413 2.217.05-.17.705.125.482.631.344.277.763-.206.973-.318.54.111.71-.363.255-.017-.381-1.081-.634-1.074-.02-2.019.36-.553 1.094-.029.675-.458 1.506z"/><path d="M132.172 232.109l1.563-1.829 1.325-1.288.785-.536.987-.724.025-1.042-.59-.749-.58.251.23-.748.158-.762v-.703l-.418-.23-.443.205-.434-.054-.138-.49-.109-1.163-.221-.377-.79-.343-.476.247-1.237-.243.075-1.698-.347-.695.368-.255-.113-.707.322-.54.209-.97-.28-.762-.64-.343-.125-.482.171-.702-2.244-.05-.451-1.41.343-.017-.017-.523-.23-.352-.05-.694-.681-.356-.736.012-.484-.347-.794-.238-.46-.444-1.312-.2-1.27-1.068.091-.795-.142-.456.122-.887-1.53.201-.618.444-1.024.48-.263.36-.602.026-.874-.1-.66.204-.53-.138.075-1.799-.961.699-1.033-.034-.442-.631-.778-.067.247-.507-.652-.72-.489-1.058.31-.213v-.498l.71-.34-.117-.63.296-.41.088-.545 1.337-.799.961-.222.16-.176 1.052.055.527-3.2.029-.507-.184-.665-.518-.427.004-.845.66-.193.234.121.038-.447-.685-.122-.013-.728 2.282.025.388-.401.326.368.226.69.221-.146.648.62.907-.076.23-.36.869-.272.485-.188.133-.494.84-.335-.062-.242-.995-.1-.163-.737.046-.783-.522-.3.217-.11.87.151.931.293.339-.276.844-.184 1.308-.436.43-.447-.159-.33.61-.051.276.268-.154.514.4.176.272.544-.326.41-.188.996.301.59.084.54.723.548.576.054.13-.226.368-.05.53-.205.38-.31.648.097.289-.042.635.096.104-.238-.196-.23.117-.34.472.105.556-.121.669.25.514.24.363-.319.26.05.162.331.56-.084.447-.443.36-.862.693-1.067.401-.054.289.644.656 2.042.627.192.033.804-.882.958.364.351 2.073.184.041 1.168.89-.762 1.476.419 1.943.71.572.683-.192.644 1.362-.36 2.282.62 1.75-.046 1.73.966 1.497 1.31.902.334 1.003.05.427.369.397 1.494.196.707-.468 1.95-.598.77-1.65 1.648-.748 1.343-.865 1.038-.293.025-.33.878.084 2.26-.326 1.874-.126.808-.367.481-.21 1.649-1.186 1.623-.2 1.293-.95.548-.275.757-1.27-.004-1.843.49-.828.565-1.312.372-1.379 1.02-.99 1.281-.171.97.196.725-.221 1.33-.264.649-.819.732-1.3 2.377-1.032 1.083-.798.645-.53 1.322-.778.799-.321-.79.514-.662-.677-.941-.92-.762-1.207-.87-.435.038-1.174-1.046zm-23.712-66.167l-.248.058-.255-.685-.378-.347.22-.76.302.047.352.993.007.694zm-.287-3.385l-1.101.195-.072-.448.475-.098.665.035.033.316zm.827-.012l-.173.861-.187-.156.018-.63-.453-.48-.004-.14.799.545zm198.505-1.875l.495.403-.087.778-.993.036-1.024-.085-.768.198-1.102-.48-.026-.254.803-.943.659-.323.868.294.642.033zm-77.87 55.445l.23.226.367.742 1.304 1.41.494.14.004.455.337.825.893.2.736.59-1.633.963-1.037.981-.382.881-.346.5-.63.108-.2.638-.12.416-.737.313-.937-.065-.552-.374-.485-.165-.564.313-.284.642-.543.404-.58.603-.826.139-.255-.473.107-.825-.687-1.271-.309-.2v-3.845l1.135-.048.033-4.587.86-.04 1.777-.446.444.525.737-.5.35-.004.65-.286.205.095zm-2.305-96.313l1.12.013 1.257-.784.268-1.184.95-.683-.107-.958.703-.366 1.248-.84 1.219.549.165.54.607-.262 1.133.518.111 1.002-.248.574.727 1.372.472.378-.07.375.78.361.335.544-.45.444-.934-.07-.223.192.272.67.285 1.276-.995.118-.356.435-.078.984-.459-.187-1.045.096-.306-.458-.434.34-.434-.283-.913-.04-1.294-.47-1.17-.156-.896.044-.636.535-.554.074-.02-.875-.36-.923.694-.41.008-.805-.322-.77zM95.076 173.8l-.006-.17.108-.055.163.138.318-.697.169-.016.003.17.169.003-.013.315-.146.5.08.177-.093.414.054.106-.102.583-.175.303-.162.035-.175.394H95l.07-1.291zM83.96 40.87l-.093-2.457 1.524.241.685.4 1.406 2.054-.319 2.071-1.742 1.154-.958-1.3-.504-2.162zm5.546 5.272l.139-.621-.827-1.021-2.373-.08.315 1.534 2.204.346.542-.158zm15.263 19.562l1.298 2.125.34.238 1.29-.53 1.267.084 1.251.117-.105-1.1-2.028-2.242-2.695-.45-.567.279-.05 1.48zM77.296 39.58l-1.138 1.746 2.62.217 1.94 1.85 1.923.625-.458-2.367-.898-2.804-3.183-2.23-2.31-.85.084 2.372 1.42 1.441zm10.875-4.262l2.154-.05-.932 1.666-.017 2.209 1.264 2.4 2.44.737 2.082-.412 2.175-4.471 1.617-1.854-1.42-2.071-.927-4.438-1.932-1.329-1.982-1.533-1.503-3.983-2.738.391.517 1.73-1.205.52-.815 2.217-.815 3.108.748 3.025 1.289 2.138zM61.402 57.554l1.646.813 5.32-.542-2.443 1.987.15 1.43 1.79-.1 2.968-1.909 3.985-.695.718-2.175-.206-2.321-1.234-.209-1.05.805-.462-1.721-.394-2.375-1.214-.588-1.079 1.838 1.684 4.604-2.058-.354-2.09-2.83-3.314-1.666-1.108 1.383-1.609 4.625zm9.473-17.525l-1.532-1.208-.63-.275-1.21 1.783-.016.834 1.956.004 1.432-1.138zm-.613 5.146l.39-1.658-1.658-.884-1.717.58-.953 1.774 1.746 1.755 2.192-1.567zm12.215 13.85l1.94-.462.537-3.438-.037-2.475-.899-2.317-.092.667-1.655-.292-1.772 1.705-1.268-.155.076 3.717 1.931-.363-.025 2.696 1.264.717zM81.1 78.029l-2.125-1.637-1.978-1.754-.365-2.576-.739-3.72-1.318-1.6-1.172-.646-1.037.591.836 3.996-.593 1.554-.961-3.741-1.075-1.292-1.331 2.004-1.638-1.983-2.62 1.196.588-1.859-1.2-.779-3.154 2.434-.82 1.546-.986 2.82 2.058.967 1.818-.05-2.73 1.442.622 1.304 1.671.07 2.515-.279 2.276.817-1.537.604-1.658-.154-1.818.588-.781.362L63.3 80.9l1.046-.367 1.608.896.638 1.521 2.096-.3 2.985-.483 2.209-1.105 1.369-.2 2.024.884 2.128.508.4-1.192-.752-1.27 1.931-.267.118-1.496zm3.25-.408l-.823 1.475-1.037 1.037 1.608 1.475.957-.354 1.587.983.731-1.137-.718-1.262-.353-.638-.705-.608-1.247-.971zM76.955 65.35l-.894-.904-1.579.167-.399.575L75.918 68l1.037-2.65zm12.047 5.488l1.264-2.888 1.403-.77 1.759-3.643-2.25-1.029-2.453-.15-1.167 1.155-.613 1.762-.017 2.008.735 3.413 1.34.142zm7.201-9.584l2.42-.075 3.375-.67 1.507.529 1.756-.942.734-1.183-.264-1.884-1.26-1.762-1.914-.334-2.398.404-1.873 1.017-1.717-.392-1.587-.204-.748-1.125-1.352-1.087.269-1.846-1.016-1.658-2.318.012-1.306-1.662-2.427-.334-.44 2.125 1.364 1.563 2.435.604 1.184 2.125.143 2.333.407 2.496 3.129 1.425 1.897.525zm-37.379-7.612l2.188-2.105 1.1-.245.907-1.763.164-4.07-1.617.795-1.805-.075-2.419 3.413-1.999 3.741 1.596 1.046 1.885-.737zm30.308 6.737l.643-1.725-.428-1.442-1.03-1.633-1.691 1.258-.626 2.05 1.428 1.163 1.704.33zm-3.489 4.767l-.306-1.2-2.1.525-1.402-.88-1.394 2 1.297 2.617-2.402-.487-.025 1.254 2.927 2.938.814 1.408 1.134.304 1.932-1.42.21-3.422-1.78-1.695 1.095-1.942zm-31.068 64.058l-.487-.975-1.176-.737-.584-.854-.398-.625-1.105-.192-.722-.28-1.234-.4-.101.426.453.991 1.214.325.214.513 1.054.625.353.629 1.931.8.588-.246zm51.106-32.346l-.84-.879-.865.209-.105-1.276-1.348-.845-1.29-.946-.684-.73-.6.43-.218-1.233-.853-.234-.403 2.554-.151 2.13-1.025 1.308 1.596-.25.403 1.52 1.676-1.341 1.167-1.408.663 1.191 1.831.63 1.046-.83zM55.066 74.967l3.1-1.742v-1.612l1.46-2.671 2.89-2.788 1.481-1.029-1.263-1.75-1.143-1.23-3.006-.237-1.68-.9-3.98.68 1.15 2.595-1.02 2.68-.815 2.862-.504 1.608 2.717 1.954.613 1.58zm56.367 11.375l.135-.421-.013-1.321-.92-.867-1.079.438-.5 1.737.294 1.484 1.319-.15.764-.9zm10.002 3.141l1.852 2.75 1.448 1.192 2.066-3.28.366-2.053-1.852-.196-1.692-2.792-1.869-.683-2.771-2.071 2.162-1.512-1.112-3.142-1.025-1.396-2.843-1.396-1.226-2.312-2.187.829-.152-1.609-1.62-1.8-2.612-1.962-1.113 1.546-2.33 1.108.176-2.525-2.02-4.187-2.985 1.691-1.088 3.209-.928-2.467.865-2.654-3.04 1.104-1.209 1.662-.903 3.509.374 3.77 1.671.017-1.23 1.634.978 1.233 1.91.52 2.49 1.01 4.284.757 2.133-.433.63-1.008.928 1.162 1.037.192 1.247 2.07-.756.826 2.385 1.096 1.806 1.533.453 1.063.323 1.35-1.524 2.887-.411 1.433.394 1.009-2.422.358-2.213.05-.777 2.03.995.928 3.405-.429-.016-.787 1.713 1.312 1.755 1.367-.412.737 1.428 1.259 2.528 1.475 3.191.996-.193-.871-1.226-1.53-1.663-2.237 2.952 2.083 1.486.692.408-1.85-.765-2.625-.482-.72-1.6-1.263-1.239-1.63.147-1.641 1.52-.388zM93.793 22.167l.983 3.037 2.083 2.45 4.119-.454 2.65.82-1.836 2.522-.928-.742-3.216-.296.5 3.463 1.662 2.516-.331 2.167-2.087 1.442-.953 2.279 1.91 1.104 1.604 3.563-3.15-2.375-.717.391.58 3.908-2.176 1.18.147 2.437 2.226.263 1.75.6 3.46-.767 3.078 1.363 3.146-2.996-.026-1.259-2.011.2-.164-1.183 1.646-1.596.559-2.146 1.818-1.596 1.117-1.983-.974-2.958.814-1.104-1.62-.788 3.564-.679.752-1.313 2.427-1.083 2.015-5.612 1.92-2.059 2.78-4.633-2.562.042 1.066-1.792 2.847-1.663 2.872-3.708.05-2.387-2.153-2.517-2.528-1.22-3.145-.76-2.549-.62L114.263 5l-3.4 1.658-.627-1.054-3.598.408-2.112 1.071-1.554 1.521-.915 4.88-1.272-2.492-1.462-.475-1.73 3.32-2.31 1.396-1.372.275-1.751 1.6.256 2.771 1.377 2.288zm31.24 110.416l-.41-.825-.446.525.294.567 1.495.713.436-.109.58-.692-1.092.046-.856-.225zM101.1 100.142l.257.679.831.058 1.377-1.392.025-.495-1.616-.025-.874 1.175zm26.089 27.683l-1.205-.75-1.55-.454-.407.154 1.096.85 1.524.558.575-.033-.033-.325zm10.45 1.996l-.15-.93-.823.3.365-1.295-1.176-.55-.541.437-1.046-.491.412-.63-.79-.387-.768.612.78-1.591.63-1.167.227-.508-.545-.084-1.02.646-.731 1.054-1.218 2.884-.987 1.066.512.475-.734.613.18.512 2.284.055 1.264-.105 1.13.417-.832.804.702.059 1.364-1.492.328.22-.256 1.405.772.32.534-.062.495-1.504-.361-1.083zm-8.9 1.987l-1.18 1.9-1.945.242-1.528-.837-.382-1.28-.374-1.858 1.113-1.18-1.042-.87-1.76.18-2.468 1.47-1.89 2.27-1 .28 1.357-1.583 1.697-2.321 1.503-.792.987-1.296 1.217-.125 1.768.013 2.52.383 1.99-.296 1.482-1.508 1.94-.662.844-.659.856-.712-.084-2.163-.474-.737-.915-.263-.466-1.687-.756-.646-1.877-.525-1.058-1.175-1.567-1.18.475-1.333-1.302-2.608-1.532-2.87-.916-2.076-.777 1.088-1.125 2.52-1.705 1.238-.852-1.313-1.075-.354-.39-2.912.033-2-2.1-.183-.356-.946-1.449-1.434-1.096-.85-.974.659-1.21-.242-2.019-.688-.819.584.395 3.825.512 2.133-1.39 2.396 1.432 1.675.798 1.85.097 1.425-.651 1.458-1.336 1.442-1.885.95.831 1.054.614 3.084-.639 1.95-.907.608-1.75-1.784-.853-2.154-.365-1.983.193-1.746-1.28-.196-1.945-.116-1.247-.867-1.474-.57-.844-.993-1.176-.804L93 112.18l-1.646.425-.55-1.646-.53-2.079-1.73-.375.068-2.67.457-1.867 1.277-2.75 1.44-2.042 1.369-.32.08-1.688.928-1.117 1.684-.175 1.364-1.83.345-1.207 1.133-2.384.353-1.458 1.218.879 1.637-.45 2.306-2.067.15-1.475-.83-1.658.877-1.692-.072-1.608-1.578-1.646-1.739-.496-1.67-.258-.064 3.63-.856 2.733-1.23 2.208-1.139-2.063.353-2.337-1.407-2.092-1.574 2.538.004-3.33-2.188-.679 1.046-1.67-1.6-3.996-1.239-1.634-1.553-.6-1.39 2.68-.093 3.891 1.374 1.371 1.26 2.046-.534 3.212-.945-.083-.747 2.45.008-2.917-1.822-1.075-1.046.559.135 1.945-1.718-.075-1.826.488-2.079-1.396-1.314.25-1.184-1.712-.95-.767-.94.32-1.432.15-.76 1.088 1.201 1.33-1.28 1.554-1.256-1.842-1.003.542-3.179.362-2.129-.662 1.659-1.559-1.587-1.625-1.155.209-1.621-.55-2.755-1.204-1.8-1.405-1.429-.196-.445.984-1.444.546-.16-2.563-1.566 2.296-1.99-3.05-.815-.37-.264 1.628-.878.792-.81-1.412-1.928.854-1.763 1.479-1.747-.409-1.428 1.042-1.033 1.367-1.226-.3-1.851-1.584-2.196-.808-.009 11.521L34 105.388l1.159.07 1.146.65.823 1.017 1.046 1.5 1.146-1.27 1.184-.747.626 1.192.793.93 1.08 1.007.734 1.58 1.206 2.45 2.002 1.333.034 1.3-.655.983.025 1.034 1.424 1.437.205 1.567 1.508.816-.168 1.163.655 1.65 2.133.763.84.787 2.28 1.763.16.004h32.587l.004-.684.399-.008.21.98.365.3.823.107 1.2.28 1.143.541.953-.229 1.449.454.478-.691.668-.275.26-.43.265-.229 1.096.359.81.041.282.238.394.992 1.323.262-.206.492.466.504-.201.65.495.212-.248.571.315.054.223-.25.23.375.883.209.894.016.953.171 1.054.325.386.525.765 1.267-.378.542-.958-.225-.592-1.017.151 1.037-.562.905.063.766-.097.446-.76.53-.554.87-.26.55.646.1.874-.5.516-.442.349-.07.646.158.315-.246.575-.2 1.025-.196-.105-.479-.055.017-.36.083-.471-.15.353-.55.36-.192.832-.233.995-.22.521.303.328-.354.373-.225.252.121.013.025 1.205-1.137.529-.305 1.789-.012h2.17l.118-.408.378-.084.5-.258.42-.758.36-1.313.9-1.292.39.45.79-.291.524.496v2.304l.769.937 1.31-.2 1.885-.054-2.045 1.358.046 1.371.895.117 1.314-1.163 1.167-.658 2.608-.98 1.457-1.09-.76-.61-.122-1.262zm-22.533-29.629l.462-1.3-.298-.512-.483-.055-.453.75-.055.171.311.738.516.208zm-59.902 15.18l.655-.98-.655.98zm189.304 72.709l-.07 1.381.462.157-.372.42-.446.313-.442.619-.244.546-.066.95-.268.449-.009.89-.334.33-.042.703-.16.09-.104.648.29.533.073 1.428.207 1.09-.116.618.232.686.673.666.624 1.504-.454-.123-1.558.203-.31.14-.33.763.26.53-.207 1.42-.144 1.207.314.216.81.466.318-.216.099 1.305-.889-.013-.475-.665-.425-.517-.888-.165-.26-.636-.711.382-.926-.17-.388-.547-.736-.11-.54.03-.067-.373-.4-.03-.53-.072-.714.178-.504-.03-.29.11.063-1.427-.385-.445-.086-.733.169-.72-.231-.458-.025-.75-1.405.008.103-.428-.59.005-.062.207-.72.047-.293.69-.173.301-.64-.169-.38.17-.765.093-.446-.623-.265-.386-.334-.712-.285-.885-3.417-.013-.409.14-.335-.021-.479.16-.161-.368.293-.127.038-.517.19-.305.421-.246.306.119.396-.454.628.013.075.335.433.212.682-.746.674-.576.293-.377-.037-.975.504-1.148.529-.606.764-.568.132-.377.029-.432.19-.411-.062-.67.145-1.046.227-.738.347-.631.066-.712.108-.826.45-.602.62-.381.954.402.735.437.847.118.864.23.347-.713.16-.093.53.119 1.289-.59.454.25.376-.033.174-.288.43-.102.871.123.744.025.384-.123.702.98.517.14.31-.196.537.076.644-.25.277.505z"/><path d="M217.953 186.217l.96-.088.216-.289.19.024.29.253 1.462-.43.493-.44.609-.394-.116-.401.327-.104 1.122.072 1.093-.526.837-1.236.592-.461.733-.197.133.49.67.71v.461l-.186.474.075.349.401.329.887.494.633.453.013.37.778.585.485.486.294.674.865.445.191.357-.385.117-.746-.024-.873-.117-.431.097-.174.272-.377.033-.455-.237-1.293.558-.53-.113-.161.089-.348.674-.866-.217-.849-.112-.737-.414-.956-.38-.622.36-.451.57-.108.783-.745-.065-.787-.188-.692.594-.608 1.043-.12-.325-.054-.51-.53-.36-.431-.579-.1-.401-.546-.586.091-.333-.116-.473.091-.871.278-.205z"/><path d="M215.325 199.706l-.458-.393-.37.192-.494.495-1.003-1.21.93-.63-.459-.757.419-.286.824-.14.096-.507.655.548 1.082.05.375-.54.153-.757-.136-.892-.575-.67.527-1.321-.305-.225-.907.094-.345-.59.092-.498 1.54.045.99.298.973.27.087-.613.641-1.064.729-.605.829.192.785.066-.07.687-.366.61-.24.71-.153 1.011.066.646-.201.397-.03.417-.14.364-.807.548-.559.585-.532 1.109.04.94-.31.364-.712.556-.72.72-.457-.204-.079-.323-.663-.013-.419.438zm-4.285-68.105l.044.354-.174.477.513.358.577.052-.089.798-.496.329-.84-.243-.246.778-.536.062-.198-.306-.634.65-.545.09-.488-.41-.387-.845-.541.305.016-.878.827-1.098-.036-.506.517.186.31-.339.96.015.235-.43zm-14.379 56.662l-.529.012-.81-.221-.74.012-1.375.197-.802.326-1.149.411-.223-.028.091-.927.107-.14-.033-.448-.491-.47-.368-.077-.339-.31.252-.5-.116-.548.054-.33h.186l.066-.495-.09-.218.11-.157.43-.137-.285-.91-.268-.467.095-.387.231-.089.15-.104.321.169.897.012.21-.334.203.024.33-.129.183.487.268-.145.48-.169.52.25.203.374.52.242.405-.286.546-.044.793.294.306 1.615-.488.95-.301 1.277.5.97zm-77.591 78.754v4.45h1.235l.695.055-.383.834-.987.644-.568-.067-.683-.169-.84-.623-1.21-.299-1.452-1.14-1.177-1.083-1.589-2.21.95.408 1.622 1.318 1.531.716.597-.914.374-1.348 1.062-.804.823.232zm.481-47.162l.453 1.747.831-.173.14.32-.395 1.331-1.255.636.037 2.164-.239.421.346.518-.815.821-.757 1.246-.411 1.221.11 1.314-.711 1.406.53 2.396.301.257-.004 1.301-.659 1.394.03 1.208-.873.952.004 1.356.35 1.456-.692.548-.308 1.356-.272 1.578.194 1.912-.465.324.271 1.849.523.614-.379.687.535.328.124.623-.502.316.123.981-.42 2.253-.613 1.482.136.888-.366 1.129-.885.791.103 1.937.407.674.77-.118-.02 1.402.477 1.107 2.79.257 1.07.303-1.025-.012-.556.476-1.04.703-.186 1.844-.49.046-1.3-.644-1.321-1.368-1.436-1.108-.362-1.208.325-1.103-.58-1.238-.149-3.09.49-1.698 1.218-1.343-1.753-.5 1.099-1.504.395-2.762 1.284.577.605-3.356-.774-.421-.362 2-.728-.227.362-2.283.395-2.88.53-1.044-.333-1.47-.094-1.675.485-.046.708-2.358.798-2.287.49-2.092-.267-2.068.345-1.124-.14-1.663.675-1.63.21-2.543.37-2.682.363-2.842-.083-2.05-.238-1.748.592-.315.309-.632.564.838.156.893.605.526-.362 1.208.592 1.39z"/><path d="M215.49 192.377l-.15-.062-.708.15-.73-.158-.566.079-1.945-.03.174-.913-.469-.764-.546-.2-.243-.518-.307-.166.017-.32.307-.822.567-1.121.346-.013.712-.68.457-.017.67.477.823-.394.11-.482.27-.473.183-.59.64-.481.243-.818.251-.262.17-.61.316-.752 1.007-.913.064-.39.132-.216-.473-.47.038-.377.337-.071.474.76.08.785-.042.784.648 1.067-.665-.012-.337.083-.546-.116-.26.552.704.685.524.2.167.485.375.806-.188.315-.601 1.18-.286.211-.094.901.12.49-.094.345.563.606.102.415.444.598.546.374.055.527.124.336-.085.623-.951-.274-.969-.303zm113.516-19.961l-1.014.584-.963-.377-.034-1.048.578-.556 1.282-.343.674.029.264.468-.515.538-.272.705zm20.34-44.55l2.044.571 1.39 1.26.478 1.637 1.785.004 1.018-.684 1.939-.514-.616 1.558-.456.626-.402 1.848-.792 1.612-1.424-.29-1.01.58.31 1.392-.167 1.885-.6.042.01.8-.76-.929-.464.883-1.814.675.185.82-1.014-.057-.557-.485-.809 1.094-1.294.82-.955.974-1.642.439-.863.7-1.265.406.624-.692-.247-.584.93-1.015-.62-.8-1.022.539-1.324 1.052-.724.97-1.152.07-.6.696.62.999.96.24.042.655.93.423 1.315-1.04 1.043.567.758.038.193.762-1.663.402-.549.775-1.143.716-.603.99 1.265.771.46 1.372.717 1.264.795 1.048-.02 1.007-.738.369.28.716.692.415-.18 1.081-.297 1.044-.658.116-.859 1.413-.95 1.695-1.09 1.525-1.612 1.168-1.634 1.057-1.324.145-.716.555-.406-.406-.666.621-1.642.622-1.244.19-.402 1.306-.65.07-.305-.895.276-.48-1.575-.398-.553.203-1.181-.323-.557-.506.184-.72-1.072-.229-.566-.472-1 .671-1.144.145-.938-.008-.629.306-.607.183.176 1.42-.624-.032-.105-.29-.034-.514-.862.36-.507-.227-.872-.469.344-1.04-.741-.244-.281-1.16-1.24.211.142-1.504 1.115-1.069.046-1.065-.034-.994-.51-.311-.395-.77-.687.099-1.265-.195.398-.551-.548-.825-.838.56-.984-.323-1.353.84-1.068.978-.947.166-.515-.352-.62-.033-.838-.303-.633.332-.774.97-.097-1.028-.716.277-1.37-.128-1.328-.298-.95-.576-.914-.261-.393-.634-.658-.19-1.185-.867-.943-.41-.486.32-1.633-.937-1.152-.854-.331-1.504.842.186.038-.7-.465-.708.117-1.136-1.26-1.653-1.932-.576-.348-1.102-.867-.675-.21-.419-.175-.833.042-.571-.712-.336-.386.15-.297-1.376.335-.344-.163-.353 1.122-.716.813-.299 1.244.203.444-.973 1.508-.183.419-.613 1.851-.841.164-.352-.093-.895.805-.41-1.056-2.797 2.329-.655.603-.369.846-3.008 2.33.56.653-.771.054-1.736.976-.162.892-1.172.461-.145.31 1.23.989.924 1.675.65.813 1.376-.453 1.96.423.717 1.395.282 1.584.228 1.42 1.015.724.178.536 1.48.691.94 1.295-.038 2.425.353 1.562-.22 1.16.232 1.74.949h1.419l.52.48 1.37-.832 1.897-.543 1.759-.058 1.374-.555.842-.85.82-.538-.188-.53-.377-.622.616-1.053.662.15 1.206.331 1.169-.87 1.793-.642.862-1.103.826-.48 1.704-.224.926.19.13-.6-1.064-1.198-.942-.55-.9.637-1.161-.269-.666.22-.302-.709.83-1.752.573-1.347 1.412.675 1.655-1.135-.013-.8 1.06-1.955.653-.601-.017-1.044-.645-.452.972-.957 1.458-.348 1.558-.054 1.76.576 1.03.708.724 1.91.44.804.41 1.132.365 1.736zM111.183 195.07l-.494-.281-.57-.392-.329.187-.977-.166-.284-.508-.214.018-1.158-.679-.157-.37.433-.086-.05-.597.268-.43.577-.082.486-.746.441-.622-.428-.286.218-.691-.26-1.092.248-.311-.181-1.01-.466-.64.144-.58.375.085.219-.358-.272-.704.144-.179.593.038.87-.84.474-.128.012-.396.214-1.02.664-.562.725-.022.091-.251.907.098.91-.61.45-.273.56-.584.408.072.301.32-.222.41-.742.204-.293.606-.45.345-.333.452-.144.858-.318.707.594.081.148.55.256.265.09.482-.136.443.042.252.284.102.276.414 1.484-.115.672.153.816 1.028.465-.128.833.064.66-.132.407.205-.21.64-.255.4-.091.857.23.79.33.353.042.269-.59.592.42.26.31.418.35 1.182-.218.149-.223-.704-.321-.375-.384.41-2.25-.026.012.742.676.124-.037.456-.23-.124-.652.196-.004.862.511.435.182.678-.03.516-.519 3.262-.577-.635-.346-.026.746-1.211-.886-.559-.692.103-.417-.205-.638.316-.858-.15-.684-1.245-.531-.307-.371-.563-.767-.563zM102.504 185l-.638-.298-.24-.279.135-.232-.043-.293-.327-.321-.462-.26-.408-.17-.076-.393-.31-.236.075.387-.235.317-.27-.369-.377-.132-.16-.27.008-.406.156-.426-.332-.189.269-.255.176-.175.778.355.269-.175.374.113.197.274.345.09.285-.283.299.728.453.539.555.572-.458.118.008.539.244.194-.176.16.046.242-.097.27zm.756-18l1.039.088.945.012 1.13.413.48.444 1.126-.136.425.284 1.022.745.747.54.395-.016.722.245-.09.336.889.048.91.488-.142.277-.803.152-.807.06-.833-.096-1.723.116.808-.665-.49-.308-.777-.08-.417-.344-.287-.681-.679.044-1.12-.32-.366-.253-1.568-.188-.42-.236.45-.3-1.18-.06-.864.624-.498.016-.176.297-.593.132-.515-.116.636-.373.257-.432.546-.273.614-.236.915-.116zm136.868-16.221L241 150l-1.177.544-.932-.027-.185.443-.092.01-.614.065.3.73.632.235 1.33-.736-.042-.144zm-20.415-20.86l-.557-.36-.57.099-.94-.585-.427.144-.677.783-.902-.617-.682-.823-.617-.468-.13-.82-.211-.584.88-.428.449-.495.872-.387.302-.378.319.23.54-.212.573.644.902.175-.073.545.656.405.18-.509.83.22.116.617.897.122.557.954-.358.004-.19.347-.276.085-.078.437-.233.094-.034.176-.41.198-.535-.032z"/><path d="M211.792 118l.022.766 1.233.457-.013.693 1.239-.367.682-.534 1.377.77.573.616.287.979-.339.505.439.673.304.999-.096.636.5 1.166-.543.191-.322-.208-.304.343-.877.35-.452.449-.886.387.213.53.13.742.621.424.687.746-.426.795-.439.22.174 1.11-.117.285-.378-.347-.583-.049-.873.302-1.073-.073-.174.444-.617-.465-.369.09-1.303-.514-.252.367-1.034-.012.152-1.215.617-1.182-1.755-.318-.574-.457.07-.774-.243-.4.139-1.21-.209-1.913h.734l.309-.697.304-1.725-.23-.644.238-.407 1.021-.106.226.424.826-.95-.278-.73-.057-1.121.921.26zm38.924 62l.284.35-.039.471-.69.27.522.31-.448.599-.267-.198-.29.079-.676-.02-.017-.341-.095-.314.41-.527.422-.5.517.099zM214 116.386l-.652 1.614-1.138-1.122-.151-.833 1.596-.675.345 1.016zm-1.933-1.727l-.264.772-.322-.224-.785 1.46.295.971-.694.301-.823-.26-.443-1.106-.031-2.081.182-.557.311-.626.959-.13.38-.581.878-.598-.035 1.09-.323.682.132.582.583.305zm-96.811 56.568l.137-.227.862.009.653.339.29-.036.201.468.606-.027-.04.393.492.049.543.481-.409.535-.523-.285-.508.053-.361-.062-.201.24-.425.08-.165-.316-.366.187-.44.892-.287-.205-.055-.374.023-.357-.283-.392.267-.223.087-.504zM214 166.484l-3.977 2.401-3.36 2.443-1.634.55-1.287.122-.012-.785-.538-.2-.724-.355-.274-.58-3.914-2.736-3.914-2.776-4.366-3.144.025-.255v-.088l-.013-1.565 1.875-.986 1.159-.204.951-.36.443-.676 1.357-.534.05-1.01.67-.122.526-.505 1.518-.234.211-.534-.306-.297-.401-1.474-.066-.856-.439-.91 1.113-.78 1.258-.251.732-.593 1.118-.443 1.965-.258 1.92-.122.584.218 1.092-.572 1.241-.013.472.338.79-.087-.235.747.186 1.374-.273 1.173-.716.785.103 1.056.948.831.012.334.712.555.497 2.447.376 1.186.062.618-.203 1.081.083.602-.149.718.104.822-.464.543.687.94.046.55.41.715.541-.234.919.593zM105.814 198.28l.649-.823-.266-.484-.466.515-.731-.483.248-.313-.204-1.002.426-.167.227-.685.461-.713-.087-.448.67-.237.836-.44 1.223.63.227-.016.3.471 1.032.155.348-.174.6.364.523.262.17.835-.379.721-1.332 1.153-1.467.436-.749.963-.23.744-.693.456-.509-.559-.496-.118-.5.087-.036-.404.349-.262zm122.405-86.009l.147-1.36-.46.291-.794-.829-.112-1.356 1.585-.668 1.576-.349 1.357.397 1.294-.074.188.419-.888 1.37.37 2.164-.536.724-1.035-.004-1.076-.847-.55-.283zm12.544 46.654l-.324.559-.246 1.04-.312.715-.271.238-.382-.442-.521-.61-.821-1.985-.115.125.476 1.46.706 1.379.87 2.114.423.728.37.754 1.034 1.474-.23.23.037.853 1.342 1.174.201.269h-13.655v-9.711l-.345-1.118.296-.867-.177-.602.415-.68 1.53-.022 1.109.373 1.14.42.534.217.887-.447.476-.403 1.014-.117.816.178.316.702.267-.464.92.334.899.082.566-.355zm8.372 20.965l-.406-.406-.485-.73-.524-.401-.308-.437-1.03-.503-.81-.013-.288-.262-.692.293-.718-.573-.371.94-1.376-.262-.127-.503.507-1.857.118-.843.376-.394.87-.21.599-.729.688 1.477.325 1.167.65.616 1.613 1.188.658.717.642.725.371.428.583.376-.359.306zm-59.705-38.889l.06-1.131-.49-.7 1.704-1.17 1.476.295 1.622-.012 1.282.278 1.003-.084 1.95.05.481.63 2.22.734.44-.35 1.359.726 1.398-.207.065.924-1.145 1.051-1.544.33-.108.523-.744.857-.465 1.249.473.865-.701.676-.258.97-.912.296-.857 1.135-1.527.021-1.153-.025-.753.515-.46.553-.595-.122-.443-.494-.344-.844-1.128-.228-.098-.49.447-.557.164-.405-.414-.448.332-.992-.482-.916.52-.126.048-.726.198-.224.013-1.216.56-.422-.337-.793-.705-.055-.207.198-.71.005-.305-.777-.49.232z"/><path d="M243.676 177l.695.562.67-.287.278.257.785.013.997.494.298.429.507.395.47.716.392.4-.4.54-.389.571.09.34.017.368.641.022.274-.086.253.214-.249.434.425.67.421.583.437.434 3.748 1.433.964-.008-3.24 3.613-1.492.052-1.022.845-.731.022-.315.377h-.785l-.461-.403-1.047.502-.339.498-.764-.094-.253-.138-.27.03-.36-.008-1.45-1.017h-.797l-.393-.395v-.674l-.596-.202-.674-1.309-.523-.279-.205-.48-.58-.589-.703-.085.392-.691.61-.03.167-.37-.013-1.085.34-1.27.54-.344.118-.498.49-.931.69-.605.466-1.21.184-1.06 1.333.257zM128 265.242l1.39-.994.984.414.7-.662.926.743-.347.584-1.568.507-.521-.592-.985.758zM233.503 81.697l-.175 2.258 1.83 2.086-1.1 2.292 1.39 3.329-.807 2.408 1.08 2.033-.491 1.73 1.77 1.782-.448 1.296-1.113 1.443-2.56 3.099-2.17.188-2.103.866-1.945.493-.695-1.284-1.156-.782.265-2.392-.58-2.262.571-1.497 1.084-1.648 2.734-2.935.801-.581-.128-1.188-1.663-1.347-.4-1.129-.035-4.65-1.864-2.153L224 81.559l.717-.87 1.33 1.735 1.561-.159 1.284.778 1.139-1.434.588-2.45L232.475 78l1.535 1.359zM411 214l-.128.636-.084.073-.652.327-.656.278-.132-.491.513-.273.326-.073.604-.409L411 214zm-2.14 1.96l-.464-.165-.396.455.099.586.568.164.637-.182.169-.695-.352-.382-.26.218zM211 140.76l-.398 1.24-.545-.326-.278-1.085.244-.604.776-.622.201 1.398zm-7.176-14.298l.84.883.616-.146 1.05.845.27.159.347-.039.566.48 1.73.34-.608 1.242-.154 1.278-.33.305-.548-.163.038.45-.878.986-.017.789.574-.27.411.759-.051.484.355.643-.415.52.308 1.302.651.21-.137.72-1.088.931-2.37-.446-1.747.532-.137.982-1.393.21-1.35-.738-.436.352-2.21-.742-.48-.639.62-.994.228-3.379-1.239-1.826-.886-.896-1.834-.686-.12-1.317 1.56-.394 2.017.467-.38-2.075 1.134.793 2.798-1.445.36-1.543 1.05-.386.175.669.557.03.553.763zM212.857 199l-1.278-1.123-.825-.916-.754-1.146.04-.367.27-.354.307-.808.248-.825.421-.063 1.81.012-.013-1.334.59-.076.759.151.736-.143.155.06-.093.485.35.574.923-.092.31.22-.536 1.285.585.653.138.868-.155.737-.382.526-1.1-.048-.665-.534-.098.494-.838.135-.426.28.466.736zm-19.589-80.553l-.636 1.339-.899-.399-.733.029.246-1.046-.246-1.058.996-.082 1.272 1.217zm3.158-8.447l-1.272 2.331 1.212-.292 1.302.012-.31 1.717-1.068 1.847 1.23.13.093.212 1.06 2.356.813.313.734 2.201.339.75 1.441.357-.144 1.192-.606.542.474.948-1.068.948-1.59-.017-2.021.493-.556-.354-.784.838-1.098-.204-.835.68-.631-.354 1.742-1.888 1.064-.395h-.009l-1.856-.305-.335-.732 1.242-.574-.653-1.01.225-1.244 1.767.175h.005l.173-1.115-.797-1.2-.017-.029-1.44-.346-.285-.537.433-.891-.39-.557-.64.952-.068-1.953-.602-1.054.432-2.181.924-1.754.95.175 1.42-.183zm52.491 31.255l.175-.68-.299-1.094-.692-.6-.661-.187-.44-.498.145-.196 1.012.28 1.763.265 1.63.778.21.303.726-.256 1.118.34.363.66.756.37-.312.217.589.86-.162.183-.645-.094-.892-.45-.295.255-1.664.246-1.153-.774zm-110.855 50.257l-.4.41-.5.078-.142-.302-.235-.047-.325.295-.46-.221.265-.461.09-.493.18-.46-.408-.64-.082-.74.545-.931.355.12.774.256 1.11.915.171.442-.62.988zm62.938-3.03l-1.823.73-.646.427-1.048.361-1.031-.352.05-.494-.502-1.073.302-1.411.49-1.05-.307-1.786-.162-.948.03-.717 2.017-.058.513.094.373-.205.539.098-.087.396.484.65v.913l.112.988.29.459-.257 1.126.091.623.311.793zM145.27 11.036l3.96-5.713 4.137.45 1.5-3.757L159.035 1l9.416 1.322 7.373 7.803-2.178 3.488-4.51.386-6.343.852.592 1.528 4.175-.94 3.547 2.9 2.291-2.569.98 3.002-1.295 4.604 3.002-2.909 5.72-3.169 3.536 1.6.66 3.408-4.805 5.314-.664 1.637-3.766 1.2 2.728.332-1.379 4.83-.95 4.026.038 6.405 1.416 3.5-1.84.215-1.939 1.628 2.174 2.645.277 4.038-1.261.428 1.53 3.84-2.619.315 1.366 1.738-.386 1.469-1.66.638-1.644.013 1.475 2.72.017 1.733-2.333-1.608-.605 1.045 1.589.962 1.546 2.3.446 2.917-2.102.68-.908-1.368-1.458-2.09.403 2.463-1.366 1.851 3.106.147 1.623.189-3.157 2.95-3.207 2.574-3.447 1.095-1.3.017-1.218 1.205-1.64 3.202-2.534 2.053-.816.121-1.568.701-1.694.668-1.013 1.73-.013 1.913-.597 1.746-1.925 2.078.475 1.977-.53 2.036-.6 2.333-1.661.143-1.74-1.943-2.359-.013-1.143-1.335-.786-2.434-2.043-3.22-.597-1.746-.16-2.472-1.635-2.632.425-2.17-.786-1.062 1.164-3.63 1.774-1.197.466-1.368.249-2.627-1.346 1.2-.643.5-1.06.478-1.445-1.096-.08-2.33.462-1.88 1.093-.05 2.405.945-2.026-2.28-1.055-1.263-1.173.525-.984-.924 1.316-3.568-.715-1.481-.937-2.83-1.417-4.579-1.5-1.75.012-1.943-3.165-2.808-2.501-.357-3.149.197-2.875.361-1.37-1.574-2.048-3.215 3.094-1.666 2.375-.286-5.044-1.41L114 43.784l.164-2.242 4.46-2.883 4.317-3.006.454-2.363-3.178-2.422 1.026-2.787 4.082-5.175 1.715-.831-.492-3.597 2.791-2.2 3.624-1.347 3.623-.076 1.286 2.645L141 12.748l2.812 3.266 1.652.667 2.451 2.69-2.804-4.52zM180 178.972l.171-.593 1.453-.038.305-.318.423-.023.524.332.414.004.443-.224.267.388-.576.3-.581-.024-.572-.285-.495.308-.238.014-.324.187zm10.252 6.602l-.347-.028-.251.454-.352-.004-.237-.241.079-.454-.515-.691-.321.128-.264.024-.339.065.013-.414-.197-.298.04-.33-.27-.478-.342-.405h-.986l-.286.213-.343.024-.21.245-.142.317-.66.499-.54-.672-.48-.446-.317-.144-.308-.23-.136-.502-.18-.249-.361-.189.55-.554.374.02.32-.193h.274l.193-.153-.105-.378.136-.12.022-.39.594.012.888.281.273-.028.092-.124.673.088.176-.064.07.422.199-.004.32-.153.203.04.343.29.528.092.339-.25.4-.152.295-.16.246.031.273.25.15.317.505.478-.255.294-.048.37.264-.113.154.137-.066.337.378.33-.246.088-.101.386.285.466.304.908-.457.137-.12.157.098.217-.07.494z"/><path d="M211.187 193l-.187-.118.346-.882 1.643.02.011.943-1.47-.008zm16.211-43.095l.676.47.964-.077.923.098-.03.243.676-.166-.155.41-1.786.117.014-.227-1.512-.272.23-.596zm3.602-8.503l-.385.945-.296.166-.755-.04-.646-.142-1.503.39.858.835-.628.24h-.69l-.653-.764-.235.325.279.884.619.69-.469.32.69.67.614.418.018.811-1.145-.381.367.73-.787.15.469 1.25-.823.016-1.016-.613-.464-1.14-.217-.957-.482-.665-.636-.832-.084-.418.575-.714.075-.483.402-.215.026-.393.81-.134.472-.329.672.029.203-.264.235-.049.915.045.994-.414.875.528 1.127-.142.013-.755.606.402zM94.665 179l-.642-.212-.78-.02-.57-.242-.673-.499.031-.355.143-.288-.174-.228.602-.999 1.6-.004.035-.414-.205-.077-.138-.266-.464-.283-.463-.415h.566V174h1.168l1.154.013-.01.977-.097 1.387h.374l.406.225.107-.182.365.152-.566.47-.593.342-.089.233.098.24-.258.31-.294.072.067.143-.232.136-.428.304zm86.895 3l-.54-.522-.424-.084-.23-.354.008-.195-.31-.265-.064-.27.535-.208.334.04.27-.142 1.861.053-.018.43-.111.132.086.416-.158.168h-.223l-.262.213-.306-.023zm-51.526 3l.808.415.76.738.035.584.465.028.66.548.487.395-.198 1.016-.746.294.065.266-.228.58.55.815.394.004.159.632.755.976-.303.04-.68-.093-.4.299-.558.197-.387.048-.136.218-.606-.052-.76-.528-.088-.52-.316-.569.197-.959.343-.395-.286-.524-.421-.169.162-.496-.29-.258-.64.049-.831-.855.334-.31-.027-.524.76-.181.303-.21-.421-.419.11-.415z"/><path d="M97.297 180l-.193-.41-.346-.115.08-.53-.152-.142-.234-.092-.495.157-.04-.18-.342-.212-.241-.262-.334-.11.233-.336-.088-.263.08-.253.535-.373.511-.51.117.054.25-.234.321-.019.105.106.177-.064.523.12.523-.037.362-.148.133-.147.358.069.27.092.293-.032.225-.115.515.184.181.028.342.248.326.3.41.206.298.364-.386-.028-.157.18-.39.175h-.286l-.25.17-.225-.06-.193-.202-.116.037-.145.317-.109-.014-.02.277-.394.363-.205.157-.117.165-.334-.267-.241.35-.238-.009-.265.032.024.65-.165.009-.14.303zm125.02-45.935l.296.688.387.506-.47.662-.553-.39-.84.026-1.054-.293-.57.04-.261.364-.44-.404-.257.728.601.812.266.537.557.644.466.377.461.715 1.08.639-.135.284-1.145-.621-.71-.613-1.114-.506-1.028-1.265.249-.133-.558-.728-.021-.595-.788-.275-.375.754-.361-.586.03-.612.044-.027.849.062.222-.301.418.288.479.036-.005-.498.423-.182.121-.719.971-.479.388.222.91.768 1.01.342zM113.343 171l.646.047.917.169.094.579-.083.406-.257.18.272.317-.023.288-.701-.18-.499.072-.645-.076-.494.198-.57-.33.094-.34.974.145.8.086.381-.234-.483-.46.008-.407-.668-.165z"/><path d="M219 133.124l.408-1.125-.237-.378.693-.004.092-.726.626.455.452.195 1.03-.217.1-.356.492-.055.596-.276.132.114.578-.22.29-.42.403-.111 1.315.543.263-.182.68.484.087.475-.75.37-.583 1.188-.74 1.171-.987.323-.767-.072-.942.445-.46.255-1.018-.327-.916-.734-.39-.212-.241-.582zm123.009 73.73l-.497.022-1.567-.85 1.1-.24.619.369.412.369-.067.33zm4.392-.12l-1.01.266-.144-.146.106-.412.51-.738 1.166-.48.118.24.02.369-.766.901zm-7.715-2.476l.426.322.728-.099.295.515-1.365.245-.816.163-.636-.009.404-.695.648-.008.316-.434zm5.909 0l-.173.67-1.773.343-1.57-.15-.005-.442.94-.25.74.361.788-.09 1.053-.442zm-16.862-1.587l2.261.12.261-.498 2.19.58.43.78 1.773.219 1.448.717-1.347.459-1.297-.485-1.07.034-1.225-.09-1.104-.215-1.368-.459-.868-.12-.493.15-2.151-.497-.207-.52-1.078-.09.809-1.15 1.432.073.951.472.489.09.164.43zm30.817-.678l-.606.82-.114-.906.21-.434.25-.407.269.352-.009.575zm-8.826-3.304l-.442.399-.817-.22-.232-.514 1.196-.056.295.39zm3.807-.438l.43.914-.999-.494-.985-.098-.666.077-.817-.043.283-.656 1.457-.052 1.297.352zm4.333-2.326l.328 1.935 1.222.717.985-1.27 1.356-.721h1.049l1.01.416.876.43 1.268.227.02 3.904.022 3.93-1.053-.99-1.2-.245-.29.343-1.496.039.502-.983.745-.334-.307-1.309-.569-1.008-2.29-1.017-.974-.099-1.773-1.107-.349.584-.455.107-.27-.438-.004-.52-.9-.587 1.271-.429.842.021-.097-.317h-1.726l-.468-.712-1.052-.22-.502-.591 1.592-.288.607-.39 1.895.489.185.433zm-10.511-3.072l-.948 1.184-.888.232-1.137-.232-1.967.06-1.032.172-.168.905 1.057 1.064.636-.54 2.202-.408-.097.55-.513-.172-.514.7-1.04.463 1.116 1.531-.215.412 1.061 1.382-.008.79-.632.351-.463-.42.573-.983-1.159.464-.294-.33.151-.464-.85-.704.088-1.167-.787.365.1 1.394.047 1.717-.75.176-.505-.352.337-1.103-.181-1.154-.497-.009-.366-.82.488-.785.169-.948.593-1.802.249-.494 1.002-.888.922.352 1.491.167 1.36-.051 1.167-.867.202.262zm4.072.343l-.063 1.043-.61-.116-.182.73.489.63-.329.142-.476-.755-.35-1.528.237-.957.391-.433.085.652.699.103.11.49zm-12.768-.832l1.322 1.107-1.398.141-.396.816.05 1.081-1.136.82-.03 1.192-.455 1.833-.172-.425-1.344.54-.467-.733-.842-.069-.59-.382-1.402.43-.43-.58-.775.064-.972-.137-.181-1.605-.59-.33-.569-1.021-.164-1.047.14-1.107.702-.794.198.798.809.674.762-.245.754.086.686-.605.569-.103 1.116.335.964-.254.607-1.664.454-.417.409-1.36h1.356l1.023.202-.67 1.081.868 1.133-.206.545zm-14.238 9.19l-1.306.027-.994-1.004-1.516-.979-.505-.725-.893-.974-.585-.897-.897-1.673-1.036-.996-.345-1.025-.434-.931-1.065-.751-.62-1.026-.888-.67-1.23-1.32L312 188l.762.047 1.828.232 1.044 1.171.914.811.653.498 1.12 1.287 1.2.017.994.82.682 1 .897.545-.471.974.678.416.425.03.202.832.413.67.867.107.573.76-.295 1.489-.067 1.849zm-131.627-81.931l.208 1.448-.958 1.775-2.247 1.154-1.795-.293 1.026-2.059-.66-2.055 1.723-1.615.958-.978.262 1.12-.262 1.107.787-.026zm49.063 34.147l-.223.42-.464-.186-.263.89.318.15-.328.183-.054.348.6-.182.032.514-.637 2.093-.836-2.247.368-.437-.086-.077.336-.62.26-1.012.181-.34.036-.012h.428l.118-.235.34-.02.019.555-.173.202zM291.24 150l1.248 1.669-.116 1.146.46.715-.037.706-.834-.184.328 1.519 1.14.861 1.619.95-.739.61-.452 1.25 1.129.502 1.095.649 1.519.74 1.593.171.672.665.896.121 1.402.306.967-.021.133-.519-.154-.832.091-.565.71-.28.1 1.037.024.264 1.054.498.735-.205.979.087.95-.037.083-.807-.473-.419.937-.167 1.058-.983 1.34-.849.975.327.83-.56.548.827-.394.56 1.253.197.091.502-.41.243.095.807-.83-.239-1.506.904.033.744-.639 1.087-.062.628-.519 1.054-.908-.293-.046 1.317-.261.431.124.535-.577.301-.61-2.007-.323.004-.187.812-.639-.661.361-.724.519-.075.535-1.083-.668-.222-1.079.021-1.107-.176-.104-.899-.556-.067-.921-.56-.41.882.837.682-.726.481-.257.468.714.343-.195.77.402.953.183 1.038-.17.46-.789-.017-1.435.26.066.94-.622.736-1.672.837-1.303 1.447-.875.773-1.158.8v.56l-.58.3-1.05.431-.544.067-.348.92.244 1.569.058.99-.49 1.134-.007 2.02-.602.059-.527.899.353.389-1.062.334-.39.803-.47.339-1.099-1.1-.539-1.656-.444-1.196-.41-.56-.619-1.146-.286-1.498-.203-.752-1.058-1.66-.482-2.36-.348-1.576.004-1.497-.224-1.171-1.693.748-.821-.15-1.519-1.518.56-.456-.344-.494L280 165.88l.776-.853 2.56.004-.233-1.1-.651-.656-.133-1-.763-.585 1.282-1.38 1.352.1 1.216-1.388.73-1.364 1.129-1.355-.017-.974.992-.799-.942-.681-.403-.941-.41-1.234.568-.61 1.767.346 1.295-.213zm-38.78.123l.735.45.088.867-.566.507-.26 1.143.778 1.378 1.376.788.582 1.083-.184 1.027h.357l.012.75.622.732-.666-.065-.759-.117-.822 1.334-2.095-.113-3.17-2.811-1.678-.992-1.357-.386-.453-1.75 2.492-1.516.426-1.785-.109-1.092.618-.372.578-.945.482-.238 1.308.2.397.385.538-.256z"/><path d="M262.75 147.69l1.055-.28.85-.83.798.04.53-.27.85.135 1.324.737.957.16 1.367 1.271.892.054.107 1.193-.487 1.749-.329 1.008.521.201-.512.753.393 1.09.094.856.905.227.098.864-1.084 1.205.589.691.483.794 1.144.576.034 1.14.573.21.098.592-1.726.663-.452 1.481-2.251-.383-1.307-.292-1.35-.168-.512-1.568-.573-.23-.922.23-1.205.621-1.465-.424-1.208-.991-1.154-.37-.798-1.239-.884-1.757-.645.214-.76-.436-.45.514-.661-.695-.013-.712h-.38l.196-.975-.619-1.028-1.465-.75-.828-1.308.277-1.086.602-.481-.094-.823-.781-.428-.778-1.703-.653-1.16.23-.453-.371-1.695.82-.424.188.564.606.683.82.193.436-.041 1.414-1.095.448-.107.355.437-.414.732.747.765.295-.07.38 1.074 1.136.3.833.725 1.7.247 1.87-.379zm-79.84-57.491l-.278 1.781L184 93.81l-1.575 1.991-3.501 1.742-1.048.457-1.596-.37-3.385-.799 1.195-1.13-2.64-1.272 2.147-.509-.052-.779-2.545-.628.818-1.777 1.84-.41 1.89 1.86 1.844-1.49 1.527.78L180.897 90zm35.55 55.502l-.43 1.127.178.442-.251.73-.912-.531-.61-.154-1.665-.726.166-.738 1.398.13 1.218-.158.908-.122zm-7.537-4.383l.715 1.062-.166 1.95-.54-.093-.486.487-.452-.385-.047-1.776-.273-.852.656.077.593-.47zm3.783-8.763l1.708.426-.127.807.285.694-.95-.236-.971.576.068.799-.145.454.392.807 1.12.79.601 1.286 1.33 1.237.937-.008.29.336-.337.304 1.07.548.877.454 1.022.778.124.276-.222.531-.664-.69-1.04-.242-.502.956.864.544-.14.762-.499.085-.639 1.24-.498.11.004-.437.243-.775.26-.312-.465-.848-.362-.742-.494-.182-.354-.64-.766-.272-.516-.605-.886-.097-.933-.681-1.09-.993-.815-.888-.37-1.541-.593-.183-.971-.523-.55.215-.69.73-.494.113.136-.68-.647-.2-.307-1.232.413-.49-.35-.609.052-.458.516.349.575-.077.669-.552.208.26.571-.053.26-.66.886.206.529-.276.093-.677.725.235.14-.316 1.18-.288.239.555zm-105.629 40.486l.946.108.747.295.23.332-.987.02-.425.204-.787-.195-.801-.444.165-.278.591-.083zm132.653-18.604l.205-.457 1.302.576 2.291-1.556.472 1.776-.221.215-2.346.725 1.169 1.433-.388.242-.192.475-.893.193-.28.51-.505.431-1.302-.224-.042-.202.584-2.273-.029-.558.175-.422zm116.428-1.811l.152.487-.664.86-.483-.453-.605.33-.311.826-.769-.403.009-.669.65-.846.673.165.483-.602.865.305zm7.465-4.352l-.445 1.177.206.732-.614 1.025-1.504.677-2.07.09-1.677 1.625-.79-.546-.05-1.067-2.05.317-1.394.674-1.378.025 1.193 1.042-.786 2.375-.76.58-.571-.538.29-1.253-.744-.406-.479-.966 1.113-.436.618-.893 1.184-.741.866-.987 2.344-.432 1.26.297 1.23-2.613.786.707 1.727-1.486.672-.584.74-1.855-.202-1.735.5-.987 1.251-.288.643 2.164-.034 1.244-1.088 1.525.013 1.537zm3.457-10.98l.828.352.832-.698.26 1.841-1.748.445-1.029 1.592-1.852-1.092-.639 1.744-1.31.025-.164-1.583.584-1.245 1.26-.089.344-2.278.349-1.308 1.386 1.744.9.55zM248.024 195.5l.67.968-.79.473-.279.49-.423.084-.162.833-.363.477-.221.782L246 200l-1.621-1.183-.077-.68-4.1-2.4-.194-.131-.008-1.247.323-.477.556-.778.411-.858-.496-1.352-.133-.591-.536-.82.694-.706.766-.777.588.199v.663l.387.389h.787l1.431 1.001.355.009.266-.03.25.135.754.093.335-.49 1.032-.494.456.397H249l-.988 1.34zm34.78-54.923l.27-.666.79-.217 1.985.526.184-.899.688-.321 1.713.646.438-.168 1.997.044 1.787.156.601.55.743.22-.167.346-1.899.815-.43.594-1.545.176-.456.943-1.275-.196-.829.289-1.15.69.167.341-.344.333-2.276.221-1.49-.47-1.306.113.116-.843 1.31.245.442-.454.915.145 1.542-1.06-1.426-.782-.859.369-.889-.562 1.01-.975zm38.504 41.247l-.463-.634-.573-1.261-.272-1.48.731-1.02 1.47-.236 1.07.176.942.484.511-.853 1.012.455.264.823-.142 1.466-1.914.94.5.741-1.194.086-.987.489zm31.522-41.904l.17.274-.464-.094-.535.521-.368.526.048 1.096-.635.332-.22.267-.463.443-.815.247-.535.402-.04.644-.144.164.49.239.697.648-.18.353-.52.094-.868.074-.478.657-.552-.053-.074.131-.596-.275-.149.271-.36.119-.043-.27-.32-.132-.328-.234.337-.645.29-.172-.11-.267.31-.796-.078-.242-.719-.165-.578-.398.999-.964 1.354-.813.845-1.088.583.48 1.06.058-.193-.809 1.897-.669.491-.874zm-2.163 6.08l1.03 1.71.294.928.009 1.628-.447.769-1.082.27-.954.576-1.078.119-.132-.757.221-1.05-.528-1.473.886-.241-.818-1.227.073-.131.536.053.465-.655.843-.073.507-.094zm-126.855-5.285l-.055.285-.146-.011-.08-.507-.28-.14-.251-.377.218-.314.28-.1.163-.47.21-.081.167.2.221.088.151.226.193.066.23.26.167-.008-.134.344-.138.166.038.103-.264.056zm31.712 17.395l.225.576-.097.302.348.98-.766.032-.27-.616-.964-.127.793-1.257z"/><path d="M282.751 140.498l-.674.293-1.544 1.092-.515 1.109-.44.008-.318-.732-1.494-.05-.24-1.28-.573-.013.088-1.59-1.402-1.172-2.014.126-1.377.234-1.122-1.464-.959-.62-1.82-1.188-.218-.146-3.023.983.046 5.912-.603.075-.82-1.226-.795-.443-1.332.33-.519.523-.067-.385.29-.656-.223-.553-1.36-.544-.532-1.452-.645-.41-.042-.535 1.143.155.046-1.205.997-.268 1.025.247.214-1.636-.21-1.05-1.176.083-.996-.418-1.36.749-1.098.36-.594-.277.121-.878-.749-1.155-.87.046-.997-1.184.678-1.347-.343-.364.938-1.996 1.205 1.058.147-1.334 2.424-2.03 1.833-.05 2.587 1.297 1.39.75 1.244-.78 1.862-.037 1.5.958.342-.548 1.646.08.297-.883-1.905-1.293 1.126-.933-.217-.523 1.126-.502-.846-1.343.536-.678 4.391-.695.574-.497 2.939-.75 1.055-.853 2.11.444.368 2.096 1.226-.486 1.507.682-.096 1.08 1.126-.113 2.94-1.879-.428.628 1.499 1.531 2.62 4.845.628-.974 1.616 1.07 1.687-.476.65.334.56 1.067.82.352.503.774 1.511-.243.624 1.1-.896 1.185-.975.167-.055 1.75-.653.777-2.327-.565-.846 3.038-.603.372-2.323.662 1.055 2.824-.804.418.092.904-.724-.23-.586-.573-1.742-.164-1.946-.046-.427.176-1.67-.673-.67.334-.18.938-1.935-.549-.77.226zm40.414 38.009l.392-.567.056-1.065-.978-1.104-.077-1.252-.918-1.039-.913-.087-.242.445-.71.035-.362-.222-1.271.759-.03-1.143.297-1.357-.814-.057-.07-.777-.525-.401.258-.48 1.03-.847.108.306.642.035-.181-1.497.625-.192.706 1.038.543 1.183 1.486.013.47 1.13-.771.336-.35.467 1.448.768 1.004 1.51.763 1.121.913.881.306.89-.22 1.257-1.072-.462-.543.868zm-81.23-24.747l-.36.018-.124.222H241l.48-1.044.666-.91.03-.046.603.069.221.505-.734.485zM295 185.989l-.143 1.347-.4.369-.832.295-.458-1.029-.167-1.858.433-2.113.66.724.446.913zm-104.22 4.002l-.334.009-1.322-.567-1.166-.908-1.093-.652-.865-.772.306-.383.07-.345.576-.653.599-.558.274-.026.334-.136.535.733-.082.482.247.256.366.004.26-.482.362.03-.06.35.129.58-.28.528.376.328.407.081.544.499.037.473-.119.15zm42.77 39.468l.45.449-.396.73-.22.491-.718.234-.24.487-.46.15-.966-1.165.686-.95.699-.585.603-.3zm-7.732-110.295l-.089-.505.116-.55-.48-.32-1.133-.355-.232-1.722 1.242-.642 1.818.137 1.068-.207.15.435.577.132 1.044 1.002.101.91-.89.65-.251 1.126-1.176.745-1.049-.012-.259-.609zM206.65 127l.35.33-.1.64-.506.03-.394-.128.194-.818z"/><path d="M224 115.14l.04-1.582.553-1.345 1.057-.74.89 1.612.901-.042.216-1.657.958-.386.493.27.965.806.93.004.54.494.096 1.034.361 1.242-1.21.801-.68.349-1.082-1.005-.597-.133-.157-.436-1.105.208-1.883-.137zm-6.367 52.69l-.847.476-.676-.706-1.894-.557-.526-.812-.95-.604-.56.238-.423-.727-.047-.56-.71-.957.479-.553-.107-.837.154-.732-.086-.612.21-1.101-.064-.63-.39-1.207.587-.318.102-.587-.128-.574.825-.536.368-.446.586-.404.068-1.084 1.407.489.505-.123 1 .238 1.591.625.56 1.241 1.078.272 1.69.578 1.278.685.586-.357.573-.634-.278-1.067.376-.68.864-.66.825-.19 1.621.289.41.629.445.004.381.238 1.193.166.291.46-.432.667.184.59-.308.85.36 1.098v12.061l-1.378.004-.017.527-4.78-2.419-4.782-2.457zm-18.948-13.665l-.412-1.502-.068-.872-.45-.927-.52-.017-1.232-.32-1.135.103-.719-.621-.876-.009-.374.898-.8 1.493-.884.591-1.194.651-.765.953-.162.74-.455 1.2.302 1.715-1 1.14-.594.362-.94.923-1.11.149-.6.515-.02.017-.757 1.36-.79.486-.435.813-.025.702-.315.761-.404.209-.663.83-.408.91.077.434-.392.667-.459.35-.055.59L180 170l.26-.425 4.668.008-.226-1.85.294-.66 1.113-.115-.038-3.344 3.916.072v-2.012l.025-.26v-.089L190 159.73l1.925-1.004 1.19-.209.979-.366.455-.689 1.394-.544.051-1.03.689-.123.54-.515 1.56-.238.217-.545zM231 130.426l.28-.254.78-.172.867.536.481.066.532.459-.083.577.427.274.167.705.41.426-.079.245.218.172-.31.119-.695-.045-.113-.23-.247.132.083.295-.322.528-.205.56-.294.181-.213-.75.125-.704-.037-.733-.679-.999-.373-.717-.364-.507zm-8.57 9.453l-.064-.345-.46.896.071.57-.222-.139-.295-.59-.46-.359.117-.307.155-1.006.347-.426.196-.173.28.321.154.254.347.197.404.378-.087.158-.196.408zm34.539 69.643l.292.514.273.802.182 1.469.284.573-.11.585-.194.365-.38-.721-.205.365.21.908-.1.527-.303.284-.072 1.053-.434 1.451-.545 1.736-.688 2.407-.422 1.787-.502 1.507-.9.31-.965.556-.64-.335-.88-.467-.305-.688-.071-1.15-.391-1.027-.103-.922.198-.916.51-.221.003-.42.53-.96.098-.798-.257-.594-.209-.785-.087-1.146.387-.692.15-.785.55-.043.62-.254.407-.221.49-.017.628-.7.912-.756.332-.611-.15-.522.47.148.613-.845.02-.73.367-.543zm-32.814-68.888l.15.01.056-.278.71-.21.27-.055.413-.08.558-.021.602.438.086.895-.232.044-.198.235-.653-.025-.46.293-.787.12-.498-.33-.172-.576zM185 177.678l.387-.215.194-.7.367-.03.808.33.65-.235.45.078.173-.264 4.637-.016.255-.838-.201-.148-.557-5.231-.556-5.388 1.768-.021 3.899 2.744 3.899 2.702.272.573.72.35.537.199.012.776 1.282-.12.004 2.785-.635.8-.099.739-1.026.19-1.574.098-.429.425-.742.046-.738.008-.288-.231-.639.169-1.08.495-.218.371-.899.528-.156.306-.482.24-.56-.158-.318.29-.17.808-.918.973.028.396-.317.5.078.676-.478.173-.268.149-.18-.5-.33.133-.203-.025-.21.342-.894-.012-.322-.173-.148.107-.354-.338.061-.347-.144-.14-.247.116.045-.38.24-.301-.475-.491-.14-.326-.255-.256-.231-.033-.276.165-.375.157-.318.256-.494-.095-.322-.297-.19-.041-.3.156-.186.004-.066-.433.054-.367-.099-.454-.433-.334-.226-.677zm131.156-7.162l-.659.54-.796.058-.514 1.345-.474.223.547 1.083.715.897.458.809-.41 1.062-.39.223.27.61.75.962.13.674-.017.56.438 1.095-.619 1.117-.546 1.226-.109-.885.346-.918-.378-.708.093-1.31-.458-.624-.366-1.45-.205-1.541-.486-1.012-.743.616-1.282.868-.63-.106-.696-.286.386-1.521-.233-1.155-.884-1.428.137-.45-.66-.16-.799-1.02-.072-1.016.394.194.02-.906.558-.303-.12-.54.253-.434.044-1.327.88.295.502-1.061.06-.632.62-1.096-.033-.75 1.458-.91.804.24-.092-.813.397-.244-.088-.506.659-.101.377.784.49.32.037 1.007-.048 1.083-1.065 1.087-.137 1.533 1.19-.215.269 1.18.715.249-.33 1.053.836.476.49.232.824-.367.036.523-.96.817-.241.463zM303 128.096l1.249-.31 2.264-1.57 1.807-.87 1.029.567 1.24.025.791.861 1.186.063 1.718.457 1.151-1.271-.482-1.092 1.231-1.956 1.33.785 1.075.222 1.396.483.225 1.394 1.688.772 1.122-.34 1.498-.239 1.19.243 1.164.878.72.923 1.1-.017 1.494.294 1.092-.449 1.562-.298 1.74-1.284.71.197.622.613 1.414-.151-.575 1.364-.839 1.771.305.718.673-.222 1.168.273.915-.647.952.558 1.075 1.214-.131.608-.936-.193-1.722.227-.838.487-.868 1.116-1.812.651-1.18.882-1.22-.336-.668-.151-.622 1.066.376.63.195.537-.834.546-.85.86-1.385.558-1.781.063-1.918.55-1.38.844-.524-.487h-1.435l-1.757-.961-1.172-.235-1.579.218-2.45-.357-1.309.038-.694-.953-.541-1.499-.733-.18-1.434-1.028-1.6-.231-1.41-.286-.427-.726.457-1.986-.817-1.389-1.693-.66-.999-.935z"/><path d="M185.643 177l-.761-.828-.7-.89-.764-.323-.551-.355-.646.012-.56.264-.575-.105-.395.39-.099-.653.321-.602.144-1.15-.128-1.217-.14-.611.116-.619-.296-.594-.609-.535.25-.418 4.517.008-.218-1.819.284-.648 1.077-.113-.037-3.287 3.788.071V161l4.339 3.149-1.764.02.555 5.462.555 5.303.202.15-.255.85-4.627.016-.173.268-.448-.08-.65.239-.806-.335-.366.03-.194.71zm54.783 30.693l-.361.897.36 1.546.455-.017.467.382.542.865.111 1.545-.56.254-.398.835-.848-.744-.092-.847.273-.561-.079-.478-.509-.304-.361.109-.745-.57-.681-.311.394-1.106.407-.411-.25-.98.26-.956.221-.32-.328-.997-.611-.524 1.268.216.264.324.44.549zm-154.69-44.631l-.462 1.12-.207.913-.089 1.686-.114.607.207.678.369.608.237.954.787.917.276.695.466.603 1.261.322.492.504 1.041-.338.902-.12.89-.22.75-.21.753-.496.284-.71.097-1.034.208-.36.8-.326 1.258-.285 1.05.042.72-.104.288.26-.042.596-.64.731-.28.748.217.21-.178.53-.297.95-.3-.314-.25.02-.225.017-.423.732-.216-.145-.144.058.008.178-1.096-.013h-1.11v.682h-.538l.44.405.441.277.131.26.195.074-.034.405-1.52.005-.572.975.166.223-.136.28-.03.348-1.342-1.285-.614-.389-.97-.314-.66.087-.958.45-.597.12-.838-.314-.89-.231-1.109-.55-.89-.165-1.346-.562-.99-.578-.302-.323-.664-.07-1.216-.384-.495-.554-1.275-.69-.593-.773-.284-.599.394-.12-.118-.351.27-.318.005-.43-.398-.554-.11-.496-.398-.628-1.046-1.248-1.195-.987-.575-.79-1.021-.52-.216-.314.182-.794-.605-.301-.703-.628-.297-.905-.64-.108-.685-.686-.56-.64-.05-.413-.64-1-.419-1.025.017-.517-.86-.533-.393.058-.678-.372-.19.55.194.644.115 1.005.41.55.881.912.195.31.182.091.157.455.207-.02.242.842.36.33.254.46.745.66.394 1.195.351.558.33.595.064.669.576.041.474.575.432.562-.03.223-.499.458-.212-.004-.313-.764-.775-.715-.856-.612-.61-.322.039-.93-.178-.694-.568-.397-.813-.574-.156.165-.301-.338-.733-.31-.698-.757.084-.099.487.075.445-.488.042-.59-.914-.939-.7-.368-.435-.826-.44-.88-.551-1.079-.483-1.223 1.35-.103 1.508-.149-.11.264 1.792.666 2.71.954 2.363-.008.94-.004v-.558h2.058l.432.484.61.425.703.591.394.698.296.728.614.4.987.397.745-1.045.974-.025.835.529.597.9.41.77.7.743.262.905.334.607.923.397.843.281zm232.398 24.757l.09.587.76-.135.378-.468.267.106.682.688.485.762.066.766-.123.518.11.39.087.673.406.314.452 1.006-.02.383-.818.078-1.088-.84-1.364-.9-.136-.579-.665-.762-.16-.94-.416-.62.128-.831-.255-.485.201-.204.933.493zm20.209 1.968l-.847.387-.998-.191h-1.323l-.398 1.295-.444.395-.592 1.581-.94.24-1.09-.317-.55.098-.67.574-.735-.081-.743.232-.79-.64-.192-.758.846.392.892-.212.23-.962.493-.216 1.38-.244.826-.9.567-.722.526.59.242-.386.55.036.066-.725.054-.562.887-.795.58-.892.464-.004.591.579.054.497.76.317.961.343-.082.448-.773.057.198.546z"/><path d="M239.96 208.407l.852-.095 1.361.33.3-.149.787-.028.404-.351.678.016 1.236-.453.901-.677.186.524-.049 1.167.142 1.032.044 1.848.198.582-.335.85-.44.829-.723.742-1.034.458-1.277.582-1.28 1.3-.436.222-.792.862-.465.285-.096.875.537.932.222.722.016.371.202-.062-.032 1.221-.186.582.266.215-.17.524-.472.45-.933.428-1.361.69-.497.47.097.536.287.086L238 227l-.856-.008-.097-.57-.17-.573-.097-.458.202-1.415-.295-.895-.54-1.758 1.19-1.406.3-.887.173-.112.125-.718-.181-.363.048-.907.222-.842-.004-1.522-.585-.388-.542-.086-.242-.297-.525-.252-.945.025-.073-.446-.109-.846 3.437-.977.65.565.316-.107.444.3.069.475-.239.557.081.842.74.738.346-.83.49-.25-.098-1.535-.472-.858-.408-.38-.396.017-.315-1.535zm-20.434 20.985l-.89-.976-.47-.938-.264-1.237-.295-.919-.402-1.926-.026-1.482-.153-.67-.466-.505-.62-1.008-.628-1.458-.26-.755-.98-1.171-.072-.918.577-.225.718-.204.778.037.713.539.184-.086 4.855-.05.829.572 2.902.168 2.205-.486.978-.274.778.07.474.27.009.097-.675.27-.363.004-.765.469-.462-.494-1.846.42-.893.037-.034 4.315-1.18.044v8.319l-1.073.665-.64.094-.757-.245-.534-.094-.205-.555-.475-.355zm174.742-9.126l1.062.813.67.602-.49.319-.71-.358-.93-.59-.835-.694-.855-.917L392 219l.554.022.73.44.568.442zm-192.125-40.59l.029-.789-1.329-.263-.037-.558-.65-.757-.156-.53.09-.566.74-.045.429-.417 1.571-.097 1.024-.186.099-.724.633-.785-.004-2.731 1.625-.534 3.34-2.367L213.5 166l1.822.53.65.672.815-.453.283 1.89.432.315.02.384.478.413-.25.518-.445 2.42-.058 1.533-1.472 1.109-.498 1.537.481.43-.004.748.74.028-.115.542-.325.069-.037.368-.218.024-.777-1.266-.272-.049-.9.648-.893-.336-.621-.069-.333.162-.679-.032-.679.493-.588.029-1.394-.6-.547.284-.589-.02-.431-.437-1.156-.433-1.243.137-.3.251-.16.668-.333.465-.079 1.028-.88-.664-.411.004z"/><path d="M209.842 188.401l-1.222.409-.45-.06-.453.25-.94-.024-.63-.704-.387-.822-.836-.745-.886.012H203l.067-1.829-.03-.728.223-.717.362-.352.57-.708-.12-.308.23-.46-.264-.68.046-.385.08-1.028.34-.466.164-.667.306-.251 1.269-.138 1.18.433.441.437.6.02.56-.283 1.423.599.601-.028.693-.494.693.032.34-.162.635.07.911.335.92-.647.277.048.794 1.267.223-.024.466.457-.13.21-.063.38-.992.891-.31.733-.168.595-.248.255-.24.797-.63.47-.18.574-.265.461-.11.47-.81.384-.66-.465-.449.016-.701.664-.34.012-.56 1.093zm-110.677-6.817l-.383-.367-.516-.469-.245-.392-.465-.363-.556-.526.126-.18.182.176.082-.085.343-.045.138-.27.162-.008-.024-.575.26-.028.233.008.237-.31.327.237.115-.147.2-.139.387-.322.02-.245.106.012.142-.28.115-.034.189.18.22.053.245-.151h.28l.383-.155.153-.159.379.024-.095.115-.055.26.11.429-.252.4-.118.473-.036.514.06.297.027.526-.17.115-.102.497.075.306-.225.298.052.31.17.191-.27.245-.322-.077-.186-.237-.35-.098-.253.151-.73-.306zM206.92 120l.88.053.2.64-.264 1.714-.269.693h-.638l.181 1.9-.585-.421-.669-.79-.982.376-.774-.141.544-.503.93-2.727zm26.393-46L237 76.635l-1.518.941 1.291 2.162-2.006 1.347-.95.304.5-2.36-1.513-1.372-1.83 1.173-.575 2.47-1.123 1.453-1.265-.79-1.54.16-1.311-1.752-.706.883-.732.135-.172 2.145-2.22-.515-.311 1.782-1.131-.009-.778 2.213-1.178 3.323-1.829 4.01.43.942-.413 1.077-1.169-.046-.765 2.495.072 3.395.752 1.258-.39 2.842-.98 1.608-.522 1.33-.79-1.414-2.33 2.647-1.572.528-1.631-1.144-.42-2.475-.375-5.598 1.085-1.634 3.111-2.187 2.33-2.783 2.156-3.927 2.834-5.81 1.976-2.394 3.242-4.175 2.586-1.516 1.938.186 1.795-2.952 2.149.16zm69.627 86.187l-.087.529.147.779-.127.485-.925.02-1.342-.286-.857-.113-.644-.623-1.524-.16-1.453-.693-1.048-.607-1.08-.47.433-1.17.706-.573.46-.305.894.392 1.124.818.623.18.377.599.862.247.905.544 1.258.286zm99.646 86.45l.267.646.827-.633.337.662v.663l-.432.734-.761 1.181-.595.65.428.785-.898.021-.998.62-.312 1.085-.662 1.7-.915.76-.582.489-1.073-.038-.753-.565-1.269-.119-.195-.624.628-1.249 1.468-1.633.753-.308.84-.62.998-.848.7-.831.52-1.186.44-.4.175-.874.82-.718.244.65zm1.855-7.181l.845 1.548.025-1.004.528.4.175 1.119.94.485.79.118.665-.57.591.174-.283 1.329-.353.882-.89-.03-.312.464.108.659-.17.286-.442.832-.578 1.067-.902.629-.2-.414-.487-.227.674-1.283-.382-.848-1.257-.612.034-.553.844-.527.196-1.156-.055-.962-.474-.988.034-.257-.558-.603-.919-1.283-.487-1.017.433-.114.636.797.907.376.324 1.283zm-135.546-69.849l-.431.837-.522-.066-.238.291-.185.615.144.812-.107.148-.53-.004-.719.451-.11.587-.264.254-.714-.008-.452.303.004.484-.559.332-.636-.115-.769.402-.534.07-.373-.837-.9-1.985 3.455-1.214.768-2.448-.526-.873.029-.5.337-.518.004-.512.521-.246-.205-.173.094-.82.588-.004.517.861.645.456.846.164.682.23.522.713.312.41.411.156-.004.275-.42.734-.184.344-.497.394zm-2.843-5.967l-.147.23-.218-.435.337-.435.144.11-.116.53zM108.22 185.996l-.41-.362-.262-.677.3-.334-.31-.085-.226-.415-.61-.347-.533.08-.248.437-.497.312-.266.044-.118.263.584.678-.336.16-.178.188-.567.062-.214-.749-.157.214-.406-.071-.244-.508-.501-.08-.319-.148h-.523l-.04.272-.139-.187.065-.25.1-.254-.047-.227.183-.152-.253-.182-.009-.509.476-.111.436.45-.022.268.484.053.118-.102.336.312.602-.094.519-.316.741-.255.419-.374.676.071-.044.125.68.045.546.218.396.375.463.347-.153.187.288.736-.231.374-.397-.089zm9.689 30.049l-.315.641-.604.314-1.18-.713-.105-.509-2.329-1.239-2.111-1.345-.91-.755-.488-1.006.193-.352-.994-1.591-1.163-2.223-1.108-2.385-.482-.543-.37-.878-.915-.777-.84-.484.383-.53-.571-1.133.365-.827.94-.751.139.496-.336.28.034.433.482-.093.479.127.49.598.668-.488.222-.797.722-1.031 1.415-.467 1.284-1.235.365-.772-.164-.895.315-.115.78.56.379.56.541.306.697 1.239.873.148.65-.314.424.204.705-.102.903.556-.76 1.205.352.025.588.632-1.058-.055-.16.179-.964.224-1.343.81-.089.552-.298.416.118.64-.714.345v.505l-.31.216.491 1.073.655.73-.248.514.78.067.446.641 1.036.034.966-.708-.076 1.824.533.14.663-.208 1.02 1.943-.256.408-.055.857-.025 1.035-.461.611.214.454-.273.412.508 1.035zm264.92-12.767l-.333.122-.518-.472-.525-.778-.257-.932.167-.118.128.363.363.28.582.778.564.416-.171.34zm-4.672-1.644l-.628.1-.188.346-.654.297-.616.289h-.637l-.983-.355-.684-.34.098-.381 1.073.18.654-.097.18-.586.17-.03.116.65.684-.09.338-.42.67-.438-.132-.721.719-.022.243.2-.025.679-.398.739zm-5.74 2.339l1.068.804.778 1.308.688-.04-.047.547.928.21-.36.232 1.274.52-.132.359-.795.087-.295-.32-1.03-.14-1.21-.187-.932-.787-.68-.678-.624-1.076-1.564-.537-1.013.35-.731.406.154.91-.94.424-.672-.206-1.24-.052-.02-4.006-.022-3.979 2.082.84 2.214.7.825.625.667.616.184.722 1.996.756.29.652-1.102.131.26.809zm7.13-3.537l-.377.327-.227-.721-.277-.472-.543-.398-.684-.52-.864-.359.334-.293.645.341.406.267.505.293.478.511.458.39.145.634zm-31.735-15.672l.117.76.071.643-.398 1.044-.427-1.162-.549.577.377.841-.335.533-1.382-.659-.331-.825.36-.54-.746-.541-.368.476-.553-.045-.872.638-.192-.333.46-.964.742-.32.64-.432.416.517.892-.313.193-.513.829-.028-.071-.886.95.544.101.578.076.41zm-2.815-2.138l-.424.378-.368.728-.369.341-.724-.793.243-.308.293-.322.13-.715.649-.07-.189.777.872-1.114-.113 1.098zm-6.435 1.106l-1.562 1.09.578-.802.85-.707.704-.797.616-1.146.21.939-.776.634-.62.789zm3.972-2.968l.703.358h.746l-.021.484-.545.492-.745.345-.042-.536.084-.59-.18-.553zm4.247-.313l.331 1.293-.905-.305.025.386.29.712-.558.256-.05-.81-.352-.06-.184-.7.69.094-.016-.439-.716-.886 1.127.024.318.435zm-4.666-1.053l-.31 1.004-.503-.577-.599-.886 1.005.045.407.414zm-.243-6.398l.724.341.36-.308.11.304-.193.496.402.85-.31.984-.691.39-.185.947.264.931.625.13.519-.138 1.466.646-.113.634.385.28-.121.537-.913-.569-.436-.61-.302.427-.745-.695-1.068.171-.587-.256.059-.484.368-.297-.351-.272-.151.423-.578-.67-.176-.513-.042-1.126.473.39.122-1.85.38-1.08.705-.013zm-124.737-47.765l-.494-1.189.094-.648-.3-1.018-.435-.686.335-.515-.283-.997.825-.578 1.879-.922 1.522-.682 1.2.34.09.491 1.165.025 1.483.229 2.219-.034.62.216.287.611.052.869.335.735-.008.77-.723.39.374.88.022.836.606 1.617-.129.515-.598.212-1.096 1.5.314.798-.267-.1-1.143-.685-.869.253-.567-.187-.714.382-.61-.631-.495.245-.069-.112-.555-.881-.894-.112-.116-.57-.825-.203-.181.47-.654-.375.074-.503-.9-.162zM287.842 148l.87.672.35 1.097 1.938.573-1.14 1.18-1.312.21-1.791-.342-.576.602.416 1.216.408.928.955.672-1.005.788.016.96-1.143 1.337-.74 1.344-1.233 1.37-1.37-.1-1.3 1.361.774.577.134.986.66.647.236 1.085-2.595-.004-.786.841-.862-.318-.353-.907-.913-.965-2.17.24-1.917.02-1.661.182.445-1.485 1.7-.664-.097-.594-.564-.21-.033-1.142-1.127-.578-.476-.795-.58-.693 1.972.676 1.182-.198.702.165.24-.289.824.116 1.53-.549.043-1.134.656-.758h.879l.126-.376.904-.177.433.128.463-.384-.063-.816.5-.825.749-.35-.463-.916 1.123.045.324-.498-.05-.54.588-.59-.135-.701-.281-.602.69-.623 1.265-.301 1.354-.165.597-.268zm-165.678 25.012l.616.155.22.345-.31.44-.91-.012-.707.06-.073-.744.172-.256zM242 155.237v1.036l-.241.495L241 157l.069-.443.414-.232-.403-.191.334-1.134zm-52.373-14.629l.464-.385.518-.223.323.746.75-.004.218-.19.745.052.355.762-.59.406-.015 1.168-.209.215-.05.697-.55.122.51.88-.35.952.436.43-.173.39-.473.535.105.47-.51.369-.672-.199-.659.154.195-1.11-.118-.885-.572-.133-.305-.548.105-.957.504-.53.091-.597.268-.896-.032-.637-.254-.543zM126 221.472l.472-1.438.03-.644.569-1.046 2.078-.344 1.105.02 1.114.605.017.364.352.665-.076 1.626 1.258.232.484-.236.804.328.225.36.11 1.114.14.469.443.052.45-.197.425.22v.674l-.161.728-.234.717-.196 1.098-1.08.96-.943.201-1.338-.192-1.199-.34 1.173-1.895-.174-.549-1.224-.48-1.458-.905-.973-.188zm133.079-56.726l-.079-.931.314-.674.314-.141.351.403.021.753-.252.753-.322.091zm-33.167-34.123l.504-.39.726.201.747.009.546.443.397-.28.863-.176.296-.43.493.004.354.176.363.544.371.767.676 1.07.038.785-.126.755.213.803.522.32.546-.281.534.298.025.452-.567.368-.355-.157-.325 2.065-.689-.18-.85-.618-1.377.395-.58.434-1.719-.088-.9-.267-.451.127-.338-.702-.213-.298.271-.29-.287-.214-.367.386-.685-.5-.091-.715-.714-.413-.129-.557-.634-.693.939-.333.705-1.21.554-1.229z"/><path d="M224.46 135.184l.733.368.095.639.703.446.378-.344.296.192-.279.258.22.267-.297.345.107.556.584.65-.46.467-.2.474.132.177-.197.211-.558.024-.412.086-.039-.11.142-.176.137-.365-.172.008-.236-.274-.197-.07-.155-.24-.227-.094-.172-.211-.214.086-.168.498-.287.105.098-.129-.459-.31-.395-.16-.176-.208-.317-.262.283-.067.176-.713-.58-.588.301-.674-.438.004.464-.584-.382-.447-.292-.608.923-.411.75.067.653.619zM423 91.367l-1.163 1.236-1.926.292-.029 2.689-.469.562-1.096-.08-.896-.94-1.56-.8-.264-1.202-1.193-.458-1.335.366-.636-.987.255-1.061-1.406.683.527 1.328-.665 1.178-.008.016-1.507 1.203-1.52-.2 1.06 1.433.699 2.164.544.696.138 1.053-.302.666-2.188-.55-3.281 1.878-1.042.287-1.796 1.707-1.703 1.461-.431 1.061-1.678-1.623-3.06 1.84-.531-.866-1.13.995-1.57-.316-.376 1.51-1.406 2.174.042.89 1.335.488-.16 3.105-1.087.08-.503 1.727.49.874-2.05 1.028-.407 2.252-1.749.475-.351 1.94-1.691 1.74-.435-1.282-.503-2.785-.652-4.434.565-2.893.991-1.278.063-1.016 1.825-.49 2.096-2.823 2.022-2.386 2.11-1.902.94-3.484-1.426.212-.703 2.048-2.976 2.648-.963-2.973-3.03.833-2.937 3.98.97 1.407-2.62.59-1.811.234.083-1.644-1.824-.35-1.452 1.124-3.587-.391-3.858.674-3.8 4.3-4.495 4.904 1.85.254.577 1.249 1.138.441.75-.99 1.289.129 1.694 2.16.042 1.632-.916 1.877-.1 2.194-.528 2.852-1.77 2.502-.394 1.174-1.594 1.94-1.582 1.885-.757.95-1.566.936-.74.02-.737-.773-1.573 1.161-.185.525-.163-.275-.008-.804.598-.041.168-1.894-.31-1.4 1.009-.582 1.422.291.791-1.619.402-1.857.456-.628.616-1.565-1.938.516-1.017.687h-1.783l-.473-1.64-1.39-1.262-2.041-.574-.436-1.782-.41-1.136-.44-.808-.723-1.92-1.03-.711-1.757-.579-1.557.054-1.457.354-.966.962.644.458.017 1.049-.653.604-1.059 1.964.013.804-1.653 1.14-1.406-.678-1.402.15-.616-.608-.703-.196-1.72 1.274-1.544.296-1.08.441-1.477-.291-1.088.02-.712-.915-1.15-.87-1.176-.242-1.486.237-1.109.338-1.666-.766-.221-1.382-1.382-.48-1.062-.22-1.315-.778-1.213 1.94.477 1.082-1.143 1.261-1.695-.453-1.171-.067-.783-.85-1.222-.024-1.021-.562-1.783.861-2.239 1.557-1.239.308-.46.146-.623-1.095-1.511.242-.498-.766-.82-.354-.566-1.057-.648-.333-1.687.474-1.615-1.066-.624.97-2.624-4.82-1.498-1.524.427-.624-2.942 1.869-1.126.112.096-1.074-1.506-.678-1.226.487-.369-2.086-2.109-.441-1.054.845-2.938.745-.574.495-4.39.692-.535.674.845 1.336-1.126.5.222.52-1.126.924 1.9 1.29-.293.88-1.649-.08-.339.545-1.502-.953-1.858.038-1.247.778-1.39-.745-2.586-1.29-1.833.05-2.423 2.018-.147 1.328-1.205-1.053-.937 1.986.343.362-.678 1.34.996 1.183.87-.05.75 1.149-.118.874.595.275-.536.994-1.138.275-1.168 1.703 1.067 1.54-.117 1.078 1.28 1.857-.698.629-.201.395-.52-.104-.807-.945-.33-.054-.737-.362-.36-.646-1.092-.328-.712.25-.205-.296-1.598-.762-1.729-.258-.992-.275-.142.192-1.494-1.362-1.34-.616-1.012-.966.854-.266.975-1.395-.657-.666 1.728-.695-.029-.374-1.055.274.038-.762.607-.482 1.134-.13.184-.578-.26-.97.478-.928-.013-.525-1.728-.587-.686.021-.724-.85-.9.288-1.49-.641.025-.362-.418-.804-.938-.091-.096-.579.293-.379-.75-1.07-1.217.184-.356-.096-.297.433-.44-.075-.288-1.224-.276-.641.226-.18.945.067.457-.424-.34-.52-.79-.346.07-.358-.476-.362-.737-1.312.251-.545-.113-.962-1.146-.49-.616.245-.167-.516-1.235-.525-.376-1.245-.1-1.036-.566-.495.503-.692-.348-2.064.837-1.303-.176-.4 1.335-1.278-1.23-1.116 2.511-3.08 1.088-1.436.444-1.29-1.737-1.774.481-1.724-1.054-2.019.79-2.397-1.364-3.314 1.084-2.281-1.795-2.078.171-2.248.95-.3 1.997-1.327 1.21-1.17 1.928 2.023 3.214.783 4.432 3.6.9 1.462.08 1.998-1.302 1.54-1.917.77-5.24-2.21-.861.375 1.912 2.123.076 1.311.075 2.81 1.51.82.917.691.15-1.295-.706-1.165.749-1.041 2.837 1.707.988-.662-.791-2.032 2.737-2.805 1.084.166 1.096 1.012.682-2.003-.979-1.781.573-1.836-.862-1.953 3.281 1.016.67 1.74-1.486.38.009 1.68.924 1.017 1.812-.641.29-1.92 2.452-1.465 4.097-2.722.883.158-1.155 1.931 1.456.33.841-1.075 2.202-.087 1.74-1.328 1.34 1.923 1.335-2.119-1.23-1.906.61-1.108 3.465 1.016 1.624 1.037 4.252 3.663.787-1.653-1.193-1.71-.033-.7-1.415-.325.39-1.594-.628-2.702-.034-1.14 2.168-3.327.77-3.505.875-.782 3.105 1.045.247 2.156-1.113 3.03.728 1.158.377 2.473-.268 4.608 1.293 1.969-.502 2.085-2.298 4.247 1.343.424.47-1.045 1.292-.753.31-1.478 1.017-1.453-.682-1.773.548-2.115-1.285-.266-.28-1.84.937-3.447-1.523-2.927 2.1-2.514-.271-2.756.586-.092.615 2.161-.46 3.61 1.255.661-.536-2.652 1.963-1.49 2.436-.204 2.168 2.156-1.042-3.172-.118-4.28 2.043-.84 2.82.183 2.545-.55-.954-2.239 1.36-2.922 1.347-.125 2.281-2.294 3.097-.629.393-1.31 3.08-.45.959 1.086 2.632-2.598 2.155.084.323-2.182 1.121-2.218 2.77-2.21 2.014 1.752-1.599 1.303 2.658.799.318 2.51 1.071-1.224 3.432.067 2.645 2.43.941 1.812-.293 2.435-1.297 1.349-3.084 2.464-.883 1.282 1.456.596 1.737 1.061 1.054-.795.599 2.66.514-1.065 1.875-.654 3.767.687.284 1.906 4.905.596.067-3.11 2.49.724 1.875-.02 1.896 2.14.54 2.514-.695 1.598 1.473 2.906 1.846 1.453 1.134-3.822 1.883 1.665 2-.99 2.273 1.132.866-1.028 1.921.516-.845-3.497 1.548-1.694 10.597 2.522 1 2.232 3.072 2.768 4.737-.674 2.335.587.975 1.457-.142 2.506 1.444.953 1.57-.683 2.08-.087 2.213.658 2.222-.37 2.042 2.909 1.457-1.032-.95-2.111.523-1.507 3.745.953 2.44-.204 3.373 1.599 1.645 1.432 2.875 2.44 3.076 3.055-.1 1.848.79.729-.271-2.144 3.184.445L423 91.367zm-53.33 37.674l-1.18-3.197-.485-1.878.03-1.873-.406-1.873-.306-1.311-.523.278.464.92-1.083.904-.105 2.622.686 1.836-.05 2.435-.272 1.35.134 1.89-.13 1.669.218 1.415.77-1.303.891 1.016.034-1.183-1.143-1.76.724-2.544 1.733.587zm-143.552-11.44l-1.23-.358-1.62.658-.268.887 1.444.229 2.16-.03-.093-.511.126-.554-.52-.32zm185.03-41.678l1.532-.217 1.21-.857.1-.496-1.7-1.045-.995-.008-.151.154-1.494 1.52.21 1.136 1.288-.187zm-45.984-11.278l-1.114 1.632.205.217 2.407.45 1.778-.03-.142-1.07-1.665-1.586-1.47.387zm10.282-3.967l1.356-1.769-2.946-1.195-2.189-.7-.28 1.495 2.18 1.778 1.88.391zm-10.517-.703l4.328.125.924-3.389-4.239-2.527-3.097-.212-1.548.907-.632 3.227 2.327 2.918 1.937-1.05zM261.514 70.773l-1.2.816.17 2.01 2.127.979.31 1.59 3.833.458.695-.308-2.244-2.96-.238-3.13 1.837-3.805 1.75-4.088 3.645-4.234 3.582-2.223 4.16-2.39.787-1.544-.817-2.01-2.285.666-2.008 1.869-3.905.924-3.875 3.085-2.624 2.435.318 2.027-2.808 3.76 1.08.507-2.327 3.443.037 2.123zm61.716-28.282l.348-2.382-2.976-3.471-.883-.408-.963.707-2.142 7.743 6.616-2.19zM254.5 30.289l1.273 1.615 1.372-1.12.163-1.132 1.055-.528 1.574-.929.456-1.09-1.741-1.603-1.105 1.207-.674 1.72-.238-1.936-1.783.087-2.29 1.311 2.612.217-.674 2.181zm54.928 5.429l1.946 2.385 3.269 1.748 2.56-.749.29-5.67-2.704-6.677L312.51 23l-2.537 1.71-3.046 4.926 1.602 1.36.9 4.722zM235.554 196l.446.632-.064.66-.322.14-.594-.072-.343.64-.677-.089.1-.615.155-.085.04-.668.323-.314.27.117zm14.129-21l-.153-.51-.36-.363-.093-.481-.61-.429-.637-1.012-.335-.993-.822-.84-.53-.197-.789-1.173-.135-.857.05-.737-.682-1.383-.555-.49-.645-.26-.39-.724.064-.284-.33-.659-.344-.284-.467-.955-.724-1.037-.607-.89-.589.005.182-.717.055-.457.149-.527 1.322.21.513-.403.285-.478.907-.18.195-.445.394-.227-1.187-1.342 2.383-.68.224-.201 1.433.366 1.772.943 3.35 2.672 2.212.107 1.056.128.297.621.84-.033.466 1.124.585.297.203.453.81.539.072.531-.119.424.153.428.339.358.161.416.178.309.356.251.33-.09.226.481.046.293.458 1.268 3.57.625.241-.263.543.88-.789 2.459-3.57 1.218-3.425.465-1.11.544-.852 1.264-.556.202-.297-.404-.453.062-1.15-.12-.22-.119-1.369.025-.322.11-.488-.312-.318.589.123.506zm139.987 31.593l.33.407-.829-.008-.448-.73.71.289.237.042zm-1.5-.727l-.461.026-.727-.122-.25-.185.077-.47.782.185.384.247.195.32zm.98-.323l-.177.219-.88-1.029-.245-.705h.402l.427.944.473.571zm-2.139-1.494l.051.239-.93-.5-.646-.424-.444-.394.177-.122.545.281.973.542.274.378zm-2.768-1.167l-.237.067-.52-.269-.486-.483.06-.197.71.5.473.382zM238.87 183.013l-.16-.02.02-.582-.14-.4-.592-.463-.14-.846.14-.867-.534-.079-.078.26-.696.062.28.343.099.706-.634.644-.576.842-.592.12-.97-.681-.437.239-.119.343-.592.218-.041.24h-1.148l-.16-.24-.831-.04-.416.201-.317-.103-.592-.68-.197-.319-.835.161-.317.541-.296 1.04-.395.219-.354.128-.095-.054-.399-.338-.074-.36.186-.486v-.475l-.667-.73-.132-.504.017-.285-.428-.343-.012-.685-.239-.454-.407.07.115-.433.3-.492-.131-.49.378-.364-.238-.277.304-.734.527-.88.995.083-.058-4.793.017-.512 1.324-.004V168h13.686l.37 1.214-.25.223.168 1.263.424 1.453.44.301.629.446-.584.69-.847.197-.367.372-.11.797-.498 1.754.123.475-.185 1.02-.469 1.163-.695.582-.494.896-.12.48-.542.33-.341 1.221zm-12.873-90.75l-1.13 1.948.183 1.669-1.853 2.13-2.252 2.217-.848 3.491.831 1.69 1.114 1.304-1.068 2.586-1.214.523-.444 3.67-.66 1.977-1.414-.203-.66 1.64-1.35.095-.37-1.956-.973-2.412-.889-3.114.515-1.307.968-1.582.387-2.794-.744-1.238-.07-3.338.756-2.454 1.155.046.403-1.059-.424-.925 1.812-3.945 1.163-3.267.769-2.176 1.117.009.312-1.748 2.194.506.17-2.109.723-.137 1.554 1.582 1.816 2.138.033 4.617.391 1.12zm-9.885 41.233l.866.11.53-.326.914-.036.197-.244.176.018.205.485-.832.382-.105.573-.362.146.004.396-.41-.028-.358-.23-.19.24-.728-.05.231-.127-.25-.605zm12.726-89.158l-2.633 2.193-2.081-1.236.815-1.399-.71-1.775 2.443-1.138.467 2.12 1.699 1.235zm-7.633-10.915l3.882 4.619-2.97 2.315-.655 4.128-1.035 1.019-.559 4.3-1.421.196-2.536-3.126 1.068-1.89-1.766-1.579-2.296-4.835-.917-4.824 3.213-2.328.647 2.275 1.678-.09.45-2.221 1.733-.23 1.484 2.271zm8.482-4.688L232 31.107l-1.75 3.486-3.418.74-3.478-1.047-.21-1.767-1.69-.115-1.292-3.06 3.642-1.93 1.712 1.668L226.71 27l2.977 1.735zm-7.255 99.39l.07.105.506-.23.624.594.73-.36.58.176.888-.238 1.17.644-.339.43-.241.668-.264.168-1.32-.5-.404.102-.29.386-.58.203-.132-.105-.598.254-.493.05-.1.329-1.034.199-.453-.18-.629-.418-.123-.566.101-.211.176-.363.545.027.418-.172.035-.152.238-.082.079-.38.281-.073.194-.301zM186.397 187l-.354-.092-.956-.492-.69-.653-.232-.45-.165-.906.71-.54.15-.344.227-.266.37-.026.307-.231h1.059l.368.44.289.519-.043.357.213.322-.014.45.364-.07-.62.57-.595.667-.071.353zm-6.363-8.47l-.47-.912-.564-.415.499-.224.551-.827.268-.606.39-.38.567.103.552-.257.636-.012.544.346.754.314.69.867.75.806.053.729.223.668.426.33.097.447-.053.363-.162.065-.62-.09-.086.126-.251.029-.82-.285-.547-.012-2.1-.05-.305.131-.377-.036-.604.19-.187-.89 1.034.024.276-.163.203-.012.422-.27.486.25.495.02.49-.261-.226-.338-.377.195-.353-.004-.446-.289-.361.02-.26.278zM260 181.329l-.03-.329-.446.004-.56.408-.629.117-.544.175-.375.025-.674.041-.422.217-.586.079-1.04.366-1.286.138-1.113.304-.59-.005-.531-.495-.232-.487-.384-.217-.438.629-.257.42.438.65.435.566.45.42 3.866 1.391.994-.008-3.342 3.506-1.539.05-1.053.82-.755.02-.324.367-1.033 1.32.013 4.226.7.953.27-.275.269-.608 1.294-1.407 1.1-.883 1.77-1.149 1.18-.94 1.391-1.587 1.012-1.303 1.012-1.707.733-1.495.565-1.311.333-1.27.253-.425-.005-.624zm-126.9 6.735l1.465.238.131-.213.99-.089 1.314.323-.637 1.022.1.812.48.707-.218.51-.105.54-.314.503-.698-.255-.58.123-.493-.106-.122.344.205.234-.11.243-.662-.098-.75-1.03-.158-.668-.393-.004-.545-.86.227-.612-.066-.281.742-.31z"/><path d="M239.48 183.207l.012.895-.166.35-.606.028-.39.654.7.081.576.557.203.456.52.264.671 1.24-.772.748-.7.679-.702.52h-.8l-.92.264-.722-.252-.468.309-1.004-.756-.272-.484-.634.24-.528-.073-.305.187-.508-.134-.69-.94-.188-.361-.849-.451-.288-.683-.476-.492-.764-.594-.012-.374-.622-.459-.776-.447.35-.126.39-.216.292-1.024.313-.533.825-.158.195.313.585.67.313.102.41-.199.822.04.158.237h1.134l.04-.236.586-.216.117-.337.431-.236.96.67.584-.117.57-.83.625-.633-.097-.696-.277-.337.687-.06.077-.257.529.077-.139.854.139.833.585.456.138.394-.02.573zm-142.57-3.574l-.14.367-.73-.022-.457-.148-.523-.312-.704-.099-.356-.34.04-.23.434-.394.234-.176-.067-.186.297-.093.375.132.27.312.384.252.045.214.555-.187.262.11.171.17zm148.809-26.115L243.364 155l-1.338-.548-.026-.013.163-.21-.017-.573.296-.766.656-.532-.197-.552-.54-.076-.116-1.092.295-.59.322-.315.322-.318.069-.812.39.285 1.325-.407.64.277.99-.009 1.382-.548.652.025L250 148l-.618.913-.66.36.116 1.055-.455 1.725zm-7.719 73.8l-.292.548-.838.134-.86-.67-.01-.427.389-.461.138-.355.414-.087.721.225.215.548zm-20.891-47.625l.115-.55-.744-.028.004-.758-.484-.434.5-1.556 1.481-1.122.058-1.553.447-2.449.252-.524-.48-.418-.02-.389-.434-.32-.286-1.912 1.175-.68 4.624 2.367 4.625 2.33.058 4.756-1.001-.082-.53.872-.306.73.24.274-.38.36.132.488-.302.487-.116.43.41-.07.24.451.012.68.43.34-.016.282-.732.201-.592.471-.835 1.262-1.092.536-1.121-.074-.327.107.116.41-.608.4-.493.451-1.46.439-.29-.258-.19-.025-.215.295-.96.09.182-.311-.364-.795-.16-.479-.51-.197-.682-.675.252-.545.53.115.326-.082.646.012-.629-1.053.041-.774-.078-.774zM280.236 260l.702.54 1.023.22.039.33-.302.796-1.67.114-.028-.93.163-.716zM202 187.753l-.838.247-.235-.41-.279-.745-.082-.586.231-1.058-.26-.431-.101-.929v-.858l-.436-.61.078-.373.916.025-.134.628.32.347.362.414.04.582.21.242-.049 2.703zm118.344-7.563l-1.094-.557-1.042.025.178-.958-1.073.008-.095 1.338-.656 1.768-.395 1.07.082.868.79.039.496 1.095.221 1.035.677.686.739.14.63.618-.396.49-.808.145-.095-.613-.99-.525-.213.214-.482-.456-.208-.593-.647-.677-.59-.567-.2.703-.23-.664.134-.75.356-1.155.59-1.24.67-1.128-.474-1.108.017-.567-.139-.681-.812-.972-.29-.617.42-.226.443-1.074-.495-.818-.772-.907-.591-1.095.512-.226.556-1.36.86-.059.712-.545.695-.294.53.392.069.758.82.056-.299 1.325.03 1.116 1.281-.741.365.217.717-.034.243-.435.92.085.925 1.014.078 1.223.986 1.078-.056 1.04-.396.553-1.142-.174-1.571.234-.782 1.014zm-37.078-37.148l-.439.447-1.298-.241-.115.831 1.294-.11 1.477.463 2.257-.218.302 1.319.392-.143.724.32-.039.547.179.796h-1.235l-.821-.103-.741.622-.532.135-.417.293-.469-.455.11-1.169-.36-.067.127-.428-.643-.32-.515.487-.128.566-.183.206-.715-.028-.383.634-.405-.266-.86.444-.366-.166.668-1.414-.255-1.054-.877-.34.31-.63.997.067.566-.796.38-.93 1.596-.341-.247.677.17.404zM346 204.55l.15-.208 1.09-.2.887-.031.393-.111.48.11-.466.241-1.321.393-1.064.256-.022-.272zm-75.078-55.081l-.102-1.185-.849-.053-1.3-1.262-.91-.16-1.26-.73-.808-.135-.504.27-.76-.041-.808.825-1.004.278-.211-1.018.166-1.523-.89-.498.293-1.013-.756-.09.252-1.262 1.073.371 1.003-.486-.832-.907-.325-.878-.919.392-.113 1.115-.358-.984.504-.51 1.292-.323.772.433.796 1.196.585-.073 1.284-.02-.187-.768.975-.531.96-.899 1.535.817.122 1.225.435.31 1.23-.069.383.274.56 1.548 1.305 1.025.743.69 1.19.715 1.516.621-.033.883-.34-.045-.541-.384-.179.51-.959.278-.227 1.14-.642.429-.898.212-.24.637-.857.184zM211.469 158l-.54-2.474-.773-.561-.014-.338-1.03-.84-.112-1.068.778-.793.297-1.186-.203-1.39.257-.755 1.375-.595.882.177-.036.747 1.07-.544.09.283-.634.722-.005.675.437.359-.167 1.25-.832.721.239.773.652.025.319.671.481.22-.072 1.076-.616.4-.387.444-.867.532.134.57-.107.582z"/><path d="M242.751 141.192l1.683.57 1.368-.226 1.009.131 1.385-.768 1.251-.071 1.13.724.201.515-.113.709.875.36.46.42-.804.407.369 1.628-.23.435.64 1.117-.56.234-.411-.353-1.364-.178-.502.218-1.335.214-.632-.024-1.352.519-.967.004-.623-.262-1.293.384-.385-.269-.063.768-.314.301-.314.301-.431-.622.444-.514-.716.118-.984-.316-.807.792-1.779.154-.95-.737-1.264-.047-.272.57-.811.162-1.135-.732-1.28.024-.695-1.378-.858-.776.57-1.101-.746-.681 1.302-1.378 1.808-.06.494-1.112 2.234.194 1.41-.958 1.37-.42 1.941-.032 2.046 1.042zm-11.403.946l-.98.784-.368-.677.017-.3.28-.163.364-.923-.573-.392 1.197-.467 1.008.202.138.57 1.026.475-.214.36-1.393.08-.502.451zm-104.091 40.009l.544-.147.199.04-.037.837-.79.123-.173-.1.277-.309zm215.553-17.052l-.652 1.929-.463.976-.571-1.008-.124-.89.637-1.181.869-.921.494.364zM239.404 196l.202.133 4.297 2.443.08.692 1.699 1.204-.545 1.48.067.683.76.44.035.313-.326.731.068.366-.076.58.414.757.49 1.2.431.266-.942.706-1.293.473-.71-.017-.422.365-.824.03-.313.155-1.424-.344-.891.099-.33-1.66-.4-.568-.242-.335-1.157-.224-.676-.365-.752-.202-.47-.207-.498-.305-.638-1.522-.688-.68-.237-.697.118-.627-.211-1.106.49-.056.431-.434.46-.628.292-.25-.013-.39-.253-.271-.068-.473.343-.151.067-.705-.473-.675.418-.147 1.297.018zm-2.082-72.559l.433.08.296-.434.353.096 1.212-.183.745 1.07-.292.383.096.579.933.087.416.803-.025.363 1.482.64.895-.287.72.85.682-.017 1.72.583.012.529-.47.928.254.97-.184.578-1.128.13-.6.482-.037.762-.932.138-.778.55-1.09.087-1.008.632.07 1.041.57.4 1.191-.1-.229.59-1.278.284-1.585.945-.646-.329.254-.77-1.274-.483.209-.32 1.115-.554-.337-.383-1.815-.425-.079-.628-1.082.208-.433.928-.903 1.228-.533-.283-.545.267-.52-.304.29-.184.205-.57.32-.537-.083-.3.245-.133.113.233.69.046.309-.12-.217-.175.08-.25-.408-.433-.167-.716-.425-.28.084-.586-.529-.466-.479-.067-.861-.545-.775.175-.278.258-.492-.005-.295.408-.862.167-.395.266-.546-.42-.745-.008-.724-.192-.504.37-.083-.466-.645-.474.229-.712.32-.458.259.1-.304-.8 1.061-1.502.579-.213.125-.516-.587-1.62.557-.07.641-.512.904-.042 1.178.15 1.303.45.92.037.437.271.437-.325.308.437 1.053-.091.462.179.079-.941.358-.416z"/><path d="M236.514 196.488l-1.204-.017-.388.15-.655.379-.267-.128.008-.926.255-.468.062-.988.232-.569.42-.644.423-.326.353-.437-.44-.163.067-1.438.451-.335.698.273.887-.286h.772l.679-.565.521.856.13.617.482 1.412-.4.895-.541.812-.314.498.008 1.301zM46.578 117.944l-.643-.761-1.03-.653-.33-1.815-1.506-1.718-.63-2.056-1.122-.141-1.86-.054-1.373-.637-2.42-2.347-1.118-.437-2.044-.828-1.619.2-2.299-1.078-1.389-1.01-1.297.503.242 1.635-.647.15-1.352.483-1.03.774-1.297.482-.167-1.348.525-2.301 1.244-.736-.322-.608-1.49 1.34-.796 1.569-1.685 1.643.855 1.103-1.106 1.602-1.255.92-1.173.661-.288.953-1.827 1.094-.371.982-1.369.886-.8-.158-1.094.575-1.184.694-.972.679-2.007.574-.184-.337 1.281-.945 1.143-.628 1.248-1.128 1.451-.233.576-.857 1.623-1.269.263-.428.863-.762.2-1.664.597-1.32-1.347.683-.376-.387-.634.811-.763-1.136-.317.808-.438-1.12-1.169.903h-.717l-.1-1.344.213-.84-.756-.824-1.522.445-.99-1.094-.8-.566-.004-1.352-.901-1.032.454-1.415.956-1.402.417-1.311.947-.187.8.412.944-1.253.85.225.894-.812-.217-1.215-.655-.482.867-1.049-.717.034-1.24.595-.354.595-.922-.595-1.656.303-1.715-.649-.492-1.102-1.48-1.627 1.643-1.195 2.607-1.419h.964l-.159 1.448 2.47-.112-.951-1.806-1.44-1.132-.83-1.514-1.122-1.32-1.606-.99.655-1.676 2.073-.104 1.477-1.49.28-1.631 1.193-1.627 1.139-.395 2.22-1.565 1.076.237L16.144 74l1.769.761.847 1.61.521-.686 1.978.212-.071.812 1.79.595 1.193-.35 2.465 1.099 2.249.324.901.446 1.556-.554 1.773 1.024 1.273.474-.009 11.505-.004 14.743 1.151.07 1.14.65.817 1.015 1.039 1.498 1.139-1.27 1.176-.744.622 1.19.788.928 1.073 1.007.73 1.577 1.197 2.447 1.99 1.331.033 1.298-.692.932zm73.396 14.33l-.522-.494-.784.291-.388-.45-.893 1.29-.354 1.311-.413.758-.497.258-.375.083-.117.408h-2.157l-1.777.012-.526.304-1.197 1.136.12.224.072.629-.876.528-.96-.133-.918-.058-.555.183.105.478.025.154-1.01.945-.884.453-.601.213-.693.428-.847.208-.584-.079-.721-.32.4-.604.259-.549.55-.87-.058-.653-.209-.932-.433-.162-.726.711-.234-.012-.058-.404.642-.649.109-.745-.096-.744-.868-.645-.993-.333-.163.632-.258.17-.209.812-.108-.549-.468.395-.292.55-.304.798-.059.687.388.99-.033 1.045-.476.765-.237.217-.318.17-.396.009-.108-.104-.313-.82-.009-.408.034-.391-.146-.778.22-.907.264-1.128.609-1.26-.175.004-.86 1.056-.158-.191.459-.59.696-1.07.797-.15.914-.333.922.175.037.008 1.03-.15-.58-.67-.312-.05-.355-.066-.246-.474-1.147.15-1.039.378-.822-.645-.663-.216.375-.903-1.03.57-.939.553-.9.433-.718-.583-1.173.354.005-.25.792-.72.83-.686 1.194-.57-1.44-.454-.947.23-1.135-.542-1.193-.278-.817-.109-.363-.3-.209-.977-.396.008-.004.683H55.602l.396 1.444.188 1.418-.288.454-.622-1.627-1.69-.59-.141.34.342.808.371 1.468.213 2.256-.142 1.494-.142 1.473-.459 1.502.376 1.206.041 1.332-.254 1.273.622.828.162 1.228.906 1.244.517.487-.042.34.976 2.019 1.135 1.436.142.778.3.228 1.09.138.416.378.655.071.13.404.546.166.76.8.196.707 1.33-.105 1.486-.15-.109.271 1.765.666 2.67.961 2.328-.008h.926l.004-.562h2.028l.425.483.597.428.696.595.388.704.292.736.605.404.972.4.739-1.054.955-.025.826.533.589.907.404.774.689.75.258.91.33.612.913.4.83.282.455-.037-.22-.437-.06-.62.013-.899.272-.59.638-.629 1.164-.57 1.064-.986.984-.312.726-.092.851.308 1.018-.166.872.703.851.042.438-.254.434.195.221-.174-.246-.263.02-.54-.208-.358.484-.208.893-.092 1.039.15 1.322-.17.734.332.568.624.208.067 1.181-.608.455.204.913 1.115.33.729-.242.873.175.512.543.999.621 1.115.447.295.183.562.576.154.35-.162.292-.787.05-.503.038-.874-.555-1.519-.008-.57-.522-.936-.392-1.14-.208-.936.179-.962.55-.807.66-.653 1.285-.899.167-.466.592-.512.584-.087.768-.824 1.21-.42.742-1.053-.163-1.435-.12-.5-.334-.1-.05-1.394-.806-.474.772.233-.25-.94.225-.645.138 1.236.597.565-.363 1 .108.057.66-1.169.375-.574-.017-.562-.292-.266-.242-.807.384.374.258.08.088.382.851-1.157.255-1.09-.342-.07.354-.425-.033.187.747-.004 1.64-.462-.347-.291-1.719.291.976-.445.68-.075.51-.08.863-.27.563.03.788-.25.092-.445-.35-.346.12.57-.483-.037-.384-.828.013-.836.2-.358.617-.949 1.235-.479 1.202-.557 1.247-.79-.2-.537-.764-.937-.062-2.388zm-99.942-20.991l-.626.332-1.063.774.179 1.007.596.55 1.169-.812 1.013-1.023-.496-.679-.772-.15zM1 99.399l.851-.525.096-.282L1 98.309v1.09zm3.546 6.391l-1.156.404.71.632.767.433.718-.362-.113-.895-.926-.212zm40.613 13.523l-1.122.158-.55-.258-.071.633.216.861.593.608.434.886.705.874.467.004-1.018-1.54.346-2.226zM16.49 169.528l-.417-.116-.113.108.013.08.133.099.2.262.393-.087.096-.15-.305-.196zm-1.247-.224l.626.037.037-.133-.576-.054-.087.15zm2.457 1.369l-.209-.109-.446-.208-.088-.02-.066.116.079.241-.204.2-.059.137.192.45-.033.345.292.175.17-.204.376-.191.46-.262.028-.067-.296-.433-.196-.17zm-3.28-2.14l-.312.171.046.05.15.283.409.046.083.017.063-.071-.338-.412-.1-.083zm-1.835-.648l-.18.125-.057.091.392.229.137-.125-.025-.291-.267-.03zm119.338 63.263l.746-.148 1.153 1.092.426-.04 1.185.909.903.794.664.983-.504.69.315.825-.496.926-1.3.821-.849-.297-.623.162-1.062-.638-.78.048-.701-.816.09-.944.25-.323-.012-1.44.308-1.473zm145.443-83.466l.033-.891-1.554-.628-1.22-.722-.762-.697-1.337-1.036-.575-1.564-.391-.277-1.262.07-.446-.313-.125-1.238-1.574-.826-.983.908-1 .537.192.776-1.316.02-.046-5.831 3.007-.97.217.144 1.811 1.173.954.61 1.116 1.445 1.37-.231 2.004-.124 1.395 1.155-.087 1.569.57.012.238 1.263 1.487.05.316.722.437-.009.513-1.093 1.537-1.077.67-.29.346.153-.979 1.003.862.578.833-.38 1.383.805-1.495 1.09-.887-.149-.483.041-.167-.42.241-.706-1.561.355-.371.97-.554.829-.975-.07-.304.656.858.355.25 1.098-.654 1.473-.883-.305zM116.33 180.445l-.034.271-.695.134.387.522-.016.603-.519.664.447.906.51-.072.265-.826-.366-.405-.06-.866 1.47-.47-.163-.542.412-.364.426.81.83.02.767.64.046.38 1.057.012 1.264-.122.678.514.902.142.661-.356.017-.292 1.462-.068 1.415-.017-1.002.34.404.543.944.085.893.562.19.915.615-.028.463.27-.935.669-.106.417.405.42-.29.21-.73.183.026.526-.32.312.796.858.16.32-.434.433-1.319.42-.85.179-.342.267-.94-.283-.876-.146-.219.105.527.291-.046.757.164.713 1.003.097.063.235-.847.323-.135.478-.489.182-.876.263-.231.348-.915.073-.653-.599-.358-1.121-.316-.397-.43-.247.603-.562-.042-.255-.337-.336-.236-.749.093-.813.26-.38.216-.608-.417-.194-.674.125-.851-.06-.476.121-.835-.975-.686-.146-1.517.11-.282-.393-.29-.098-.043-.238.14-.421-.094-.458-.26-.25-.152-.523-.607-.077.324-.671.148-.814.341-.429.46-.328.298-.575zm210.236-11.167l-1.489 1.074-.932 1.18-.247.86.857 1.3 1.043 1.599 1.011.751.681.978.51 2.232-.151 2.106-.928.785-1.278.767-.912.99-1.394 1.1-.406-.76.314-.8-.828-.676.968-.479 1.17-.084-.49-.725 1.876-.92.14-1.434-.26-.806.204-1.208-.283-.856-.844-.848-.705-1.078-.928-1.452-1.338-.738.323-.45.713-.322-.434-1.087-1.374-.013-.502-1.137-.653-.998.601-.31.892.008 1.083-.147.952-.68.538.478 1.023.231-.18.73.535.516zM396 213.867l-.27.133-.277-.446.03-.273.517.586zm-.609-1.558l.135.817-.22-.126-.17.056-.118-.28L395 212l.391.309zM262 174.962l-.827.336-.22.551-.029.427-1.137.525-1.825.581-1.023.874-.501.065-.342-.073-.668.516-.73.237-.957.065-.29.069-.248.322-.302.09-.175.315-.566-.026-.367.164-.79-.06-.298-.72.033-.675-.184-.362-.224-.917-.33-.513.228-.06-.118-.568.139-.241-.05-.543.502-.4-.118-.53.305-.616.469.328.31-.117 1.316-.025.212.124 1.104.125.436-.064.285.422.534-.211.819-1.322 1.067-.568 3.293-.487.896 2.084zm-25.52 55.355l-.227.193-.489.684-.32.697-.654.978-1.303 1.42-.813.83-.872.635-1.204.546-.588.071-.148.39-.698-.21-.572.27-1.249-.274-.699.172-.476-.075-1.188.558-.982.227-.711.537-.522.034-.49-.508-.39-.025-.497-.634-.054.197-.152-.378.009-.823-.374-.936.374-.252-.03-1.062-.755-1.28-.58-1.151v-.004L219 229.4l.55-.659.457.365.193.571.518.097.723.252.62-.097 1.028-.684v-4.837l.313.193.682 1.23-.107.794.259.462.826-.134.575-.584.547-.39.284-.622.563-.302.485.16.55.365.937.063.736-.303.115-.403.202-.617.628-.105.346-.483.382-.852 1.036-.949 1.631-.932.469.013.559.214.39-.151.612.126.551 1.788.3.911-.205 1.44.098.466-.58-.239-.332.092-.107.378-.316.492.012.453.686.714.674-.143.235-.584.875.013-.288.957-.135 1.1-.3.6-.798.677zm-2.931-.403l-.501-.412-.539.273-.625.525-.612.852.863 1.041.411-.134.214-.432.641-.21.197-.441.354-.655-.403-.407zm4.577-24.708l.568.543.306 1.034-.207.332-.24.991.232 1.017-.38.427-.365 1.146.633.323-3.664 1.021.116.884-.917.172-.684.495-.146.436-.435.094-1.05 1.034-.668.815-.405.03-.396-.146-1.347-.138-.215-.095-.009-.104-.478-.284-.783-.073-.986.288-.788-.784-.818-1.025.056-3.947 2.514.017-.103-.426.18-.461-.21-.574.137-.594-.129-.38.418.03.069.38.564-.03.766.112.405.556.964.172.74-.388.272.647.925.168.444.525.495.677.925.013-.103-1.327-.331.22-.844-.475-.327-.22.15-1.227.215-1.444-.27-.538.344-.776.323-.142 1.623-.207.473.125.508.306.478.207.766.202z"/><path d="M236.032 220.976l-.63-.12L235 221l-.571-.205-.483-.012-.757-.545-.918-.185-.347-.762-.004-.421-.508-.129-1.341-1.304-.377-.686-.237-.208-.457-.943 1.324.128.39.137.397-.028.656-.759 1.033-.963.427-.088.144-.405.673-.462.901-.16.076.433.99-.024.55.245.254.289.567.084.614.377.004 1.48-.233.82-.05.882.19.353-.131.698-.182.108-.313.863z"/></g><g transform="translate(57 137)"><text font-family="OpenSans-Light, Open Sans" font-size="9" font-weight="300" fill="#FFF"><tspan x="26" y="15">Austin</tspan></text><path d="M1.92 9.722s13.676-7.153 16.334 4.667" stroke="#000" stroke-width="1.185" opacity=".4" filter="url(#a)"/><path d="M.367 10.682s14.149-11.4 20.003 2.464" stroke="#FFCC03" stroke-width="1.169"/><circle fill="#FFCC03" cx="20" cy="13" r="2"/></g><g transform="translate(4 85)"><text font-family="OpenSans-Light, Open Sans" font-size="14" font-weight="300" fill="#FFF"><tspan x="0" y="85">San Francisco</tspan></text><text font-family="OpenSans-Light, Open Sans" font-size="14" font-weight="300" fill="#FFF"><tspan x="352.14" y="168.733">Sydney</tspan></text><path d="M56.3 61.78s149.985-97.964 316.334 84.432" stroke="#000" stroke-width="1.481" opacity=".4" filter="url(#b)"/><path d="M56.3 60.46s149.985-160.42 316.334 85.753" stroke="#FFCC03" stroke-width="1.462"/><ellipse fill="#FFCC03" cx="55.1" cy="61.643" rx="2.9" ry="2.901"/><ellipse fill="#FFCC03" cx="372.647" cy="147.124" rx="2.9" ry="2.901"/><path d="M188.23 18.617l1.993.174 5.642-7.114 5.479.48c.827.072 1.55-.502 1.618-1.285.068-.784-.544-1.474-1.37-1.547l-5.48-.48-4.32-7.985L189.8.686l1.83 7.768-5.48-.48-1.329-2.018-1.494-.13.707 3.39-1.285 3.216 1.494.13 1.66-1.756 5.479.479-3.151 7.332z" fill="#FFF"/></g></g></svg>